<?xml version="1.0" encoding="UTF-8" standalone="no"?>
<!-- Created with Inkscape (http://www.inkscape.org/) -->

<svg
   xmlns:dc="http://purl.org/dc/elements/1.1/"
   xmlns:cc="http://creativecommons.org/ns#"
   xmlns:rdf="http://www.w3.org/1999/02/22-rdf-syntax-ns#"
   xmlns:svg="http://www.w3.org/2000/svg"
   xmlns="http://www.w3.org/2000/svg"
   xmlns:sodipodi="http://sodipodi.sourceforge.net/DTD/sodipodi-0.dtd"
   xmlns:inkscape="http://www.inkscape.org/namespaces/inkscape"
   inkscape:version="0.48.2 r9819"
   version="1.1"
   id="svg2"
   height="1052.3622047"
   width="744.09448819"
   sodipodi:docname="illustrationa.svg">
  <defs
     id="defs4">
    <marker
       inkscape:stockid="Arrow1Lend"
       orient="auto"
       refY="0.0"
       refX="0.0"
       id="Arrow1Lend"
       style="overflow:visible;">
      <path
         id="path3969"
         d="M 0.0,0.0 L 5.0,-5.0 L -12.5,0.0 L 5.0,5.0 L 0.0,0.0 z "
         style="fill-rule:evenodd;stroke:#000000;stroke-width:1.0pt;marker-start:none;"
         transform="scale(0.8) rotate(180) translate(12.5,0)" />
    </marker>
    <marker
       inkscape:stockid="Arrow1Lstart"
       orient="auto"
       refY="0.0"
       refX="0.0"
       id="Arrow1Lstart"
       style="overflow:visible">
      <path
         id="path3966"
         d="M 0.0,0.0 L 5.0,-5.0 L -12.5,0.0 L 5.0,5.0 L 0.0,0.0 z "
         style="fill-rule:evenodd;stroke:#000000;stroke-width:1.0pt;marker-start:none"
         transform="scale(0.8) translate(12.5,0)" />
    </marker>
    <inkscape:perspective
       sodipodi:type="inkscape:persp3d"
       inkscape:vp_x="0 : 0.5 : 1"
       inkscape:vp_y="0 : 1000 : 0"
       inkscape:vp_z="1 : 0.5 : 1"
       inkscape:persp3d-origin="0.5 : 0.33333333 : 1"
       id="perspective3496" />
    <inkscape:perspective
       sodipodi:type="inkscape:persp3d"
       inkscape:vp_x="0 : 0.5 : 1"
       inkscape:vp_y="0 : 1000 : 0"
       inkscape:vp_z="1 : 0.5 : 1"
       inkscape:persp3d-origin="0.5 : 0.33333333 : 1"
       id="perspective3474" />
    <inkscape:perspective
       sodipodi:type="inkscape:persp3d"
       inkscape:vp_x="0 : 0.5 : 1"
       inkscape:vp_y="0 : 1000 : 0"
       inkscape:vp_z="1 : 0.5 : 1"
       inkscape:persp3d-origin="0.5 : 0.33333333 : 1"
       id="perspective2824" />
    <inkscape:perspective
       id="perspective10"
       inkscape:persp3d-origin="372.04724 : 350.78739 : 1"
       inkscape:vp_z="744.09448 : 526.18109 : 1"
       inkscape:vp_y="0 : 1000 : 0"
       inkscape:vp_x="0 : 526.18109 : 1"
       sodipodi:type="inkscape:persp3d" />
  </defs>
  <sodipodi:namedview
     id="base"
     pagecolor="#ffffff"
     bordercolor="#666666"
     borderopacity="1.0"
     inkscape:pageopacity="0.0"
     inkscape:pageshadow="2"
     inkscape:zoom="1.4"
     inkscape:cx="331.36873"
     inkscape:cy="476.00387"
     inkscape:document-units="px"
     inkscape:current-layer="layer1-9"
     showgrid="false"
     inkscape:window-width="1440"
     inkscape:window-height="853"
     inkscape:window-x="-4"
     inkscape:window-y="-4"
     inkscape:window-maximized="1" />
  <metadata
     id="metadata7">
    <rdf:RDF>
      <cc:Work
         rdf:about="">
        <dc:format>image/svg+xml</dc:format>
        <dc:type
           rdf:resource="http://purl.org/dc/dcmitype/StillImage" />
        <dc:title></dc:title>
      </cc:Work>
    </rdf:RDF>
  </metadata>
  <g
     inkscape:label="Layer 1"
     inkscape:groupmode="layer"
     id="layer1" />
  <g
     id="layer1-9"
     inkscape:label="Layer 1"
     transform="translate(528.37145,-333.45726)">
    <path
       id="path2986"
       d="m -325.57737,782.86372 c -0.0634,-0.0484 -0.12214,-0.12314 -0.13329,-0.16967 -0.005,-0.0223 -0.0377,-0.0873 -0.0719,-0.14438 -0.0342,-0.0571 -0.0801,-0.14407 -0.10194,-0.19328 -0.0219,-0.0492 -0.0662,-0.14777 -0.0986,-0.21904 -0.1801,-0.39638 -0.44949,-1.09498 -0.56218,-1.45787 -0.0387,-0.12474 -0.0774,-0.23844 -0.086,-0.2527 -0.009,-0.0143 -0.0156,-0.0398 -0.0156,-0.0567 0,-0.017 -0.01,-0.0578 -0.0218,-0.0907 -0.0485,-0.13358 -0.12747,-0.4152 -0.12747,-0.45465 0,-0.0181 -0.007,-0.0446 -0.0159,-0.0589 -0.009,-0.0143 -0.0521,-0.17182 -0.0964,-0.35017 -0.10637,-0.42874 -0.11033,-0.44531 -0.12004,-0.50186 -0.004,-0.0267 -0.0115,-0.0559 -0.0155,-0.0648 -0.004,-0.009 -0.0347,-0.1547 -0.0684,-0.32397 -0.0337,-0.16928 -0.0687,-0.34422 -0.0777,-0.38877 -0.009,-0.0445 -0.0164,-0.0992 -0.0164,-0.12149 -5e-5,-0.0223 -0.006,-0.0405 -0.0125,-0.0405 -0.007,0 -0.0125,-0.0153 -0.0125,-0.034 0,-0.0187 -0.0116,-0.0952 -0.0257,-0.17009 -0.0141,-0.0749 -0.0536,-0.31835 -0.0878,-0.54108 -0.0341,-0.22273 -0.067,-0.43412 -0.073,-0.46976 -0.006,-0.0357 -0.0169,-0.11582 -0.0242,-0.17818 -0.043,-0.36557 -0.065,-0.54194 -0.0748,-0.59935 -0.0201,-0.11851 -0.0865,-0.93078 -0.12583,-1.53885 -0.0836,-1.2933 -0.0756,-2.97372 0.0204,-4.29261 0.0513,-0.70421 0.14414,-1.60467 0.20384,-1.97622 0.006,-0.0357 0.0281,-0.18871 0.0496,-0.34017 0.0216,-0.15145 0.0439,-0.29816 0.0497,-0.32601 0.006,-0.0278 0.0275,-0.16159 0.0483,-0.29719 0.0208,-0.1356 0.0512,-0.30234 0.0674,-0.37052 0.0162,-0.0682 0.0372,-0.175 0.0467,-0.23736 0.009,-0.0624 0.0265,-0.14984 0.0379,-0.19439 0.0113,-0.0445 0.0526,-0.22357 0.0917,-0.39785 0.039,-0.17427 0.0958,-0.41131 0.12615,-0.52676 0.0303,-0.11545 0.0552,-0.22209 0.0552,-0.23697 0,-0.0149 0.0114,-0.0539 0.0253,-0.0867 0.0139,-0.0328 0.0226,-0.0781 0.0193,-0.10056 -0.004,-0.0253 9.7e-4,-0.034 0.012,-0.0229 0.0102,0.0103 0.0181,-10e-4 0.0182,-0.0259 7e-5,-0.0242 0.0155,-0.09 0.0342,-0.14634 0.0187,-0.0563 0.0452,-0.14286 0.0589,-0.19233 0.0137,-0.0495 0.0382,-0.12733 0.0544,-0.173 0.0162,-0.0457 0.0518,-0.16097 0.079,-0.25622 0.099,-0.34673 0.57793,-1.56006 0.61582,-1.56006 0.009,0 0.0156,-0.0126 0.0156,-0.0279 0,-0.0315 0.15141,-0.33716 0.23629,-0.47696 0.0522,-0.086 0.0647,-0.0922 0.18655,-0.0928 0.1416,-5.3e-4 0.20301,0.0423 0.28065,0.19657 0.0236,0.047 0.0481,0.0723 0.0565,0.0587 0.01,-0.0157 0.0116,-0.0102 0.005,0.0159 -0.006,0.0239 0.006,0.0906 0.0297,0.16679 0.059,0.19114 0.0783,0.36172 0.0786,0.69426 2e-4,0.20682 -0.006,0.33395 -0.0221,0.43736 -0.0265,0.17239 -0.12411,0.48596 -0.15126,0.48596 -0.0121,0 -0.0163,0.0183 -0.0116,0.0503 0.004,0.0286 0.002,0.0418 -0.005,0.0306 -0.0117,-0.0189 -0.0914,0.12525 -0.14316,0.25924 -0.0138,0.0357 -0.0455,0.10476 -0.0705,0.1536 -0.0705,0.13761 -0.35842,0.89484 -0.42237,1.11079 -0.0315,0.10641 -0.0692,0.22124 -0.0837,0.25519 -0.0145,0.034 -0.0264,0.0781 -0.0264,0.0981 0,0.02 -0.0117,0.0624 -0.0259,0.0942 -0.0143,0.0318 -0.0229,0.078 -0.0193,0.10274 0.004,0.0266 4.1e-4,0.0388 -0.009,0.0297 -0.008,-0.008 -0.0258,0.0325 -0.0388,0.0907 -0.013,0.0583 -0.0311,0.11759 -0.0401,0.13184 -0.009,0.0143 -0.0165,0.0405 -0.0165,0.0583 0,0.0178 -0.0232,0.12277 -0.0515,0.23327 -0.0283,0.1105 -0.0655,0.26651 -0.0827,0.34669 -0.0172,0.0802 -0.0348,0.15308 -0.0391,0.16199 -0.0104,0.0212 -0.15309,0.76074 -0.17508,0.90711 -0.009,0.0624 -0.0202,0.12068 -0.024,0.12959 -0.009,0.0202 -0.031,0.17207 -0.0715,0.48596 -0.0172,0.13364 -0.036,0.27213 -0.0417,0.30777 -0.006,0.0357 -0.0223,0.17413 -0.0371,0.30777 -0.0147,0.13364 -0.0341,0.30129 -0.043,0.37256 -0.0228,0.18319 -0.0768,0.93371 -0.10004,1.39167 -0.0259,0.51055 -0.0355,1.43888 -0.0192,1.86424 0.007,0.18709 0.0157,0.42169 0.019,0.52131 0.003,0.0996 0.015,0.31831 0.0261,0.48596 0.0111,0.16764 0.0282,0.42854 0.0381,0.57978 0.01,0.15124 0.0235,0.28901 0.0301,0.30615 0.007,0.0172 0.012,0.055 0.012,0.0841 0,0.0292 0.0105,0.13921 0.0234,0.2446 0.0128,0.1054 0.0308,0.26089 0.04,0.34552 0.009,0.0846 0.021,0.15389 0.0264,0.15389 0.005,0 0.01,0.0258 0.01,0.0574 0,0.15588 0.22559,1.46846 0.29079,1.69201 0.0127,0.0433 0.0328,0.13454 0.0752,0.34017 0.007,0.0357 0.0161,0.0721 0.0196,0.081 0.006,0.0154 0.0569,0.2095 0.14578,0.55512 0.0221,0.0858 0.05,0.1829 0.0622,0.21579 0.0269,0.0729 0.093,0.29052 0.10664,0.35117 0.005,0.0243 0.0187,0.0442 0.0293,0.0442 0.0121,0 0.0167,0.0182 0.0122,0.0486 -0.007,0.0441 0.006,0.0639 0.0334,0.0517 0.006,-0.003 0.007,0.0102 0.002,0.0281 -0.0117,0.0493 0.13606,0.45912 0.30416,0.84352 0.0507,0.11582 0.10525,0.2447 0.12134,0.28639 0.0161,0.0417 0.0371,0.0679 0.0467,0.0584 0.0102,-0.0103 0.0152,-0.001 0.0119,0.0214 -0.003,0.0213 0.0269,0.10047 0.0667,0.17579 0.10944,0.20743 0.16821,0.36579 0.20187,0.54398 0.0268,0.14182 0.0305,0.20488 0.0305,0.52002 0,0.31727 -0.003,0.37704 -0.0308,0.51835 -0.0417,0.21619 -0.11788,0.42213 -0.193,0.52218 -0.0499,0.0665 -0.0842,0.0851 -0.17412,0.0942 -0.0615,0.006 -0.13151,-0.004 -0.15545,-0.0219 z"
       style="fill:#000000"
       inkscape:connector-curvature="0" />
    <path
       id="path2938"
       d="m -323.66559,779.89556 c -0.0148,-0.0123 -0.0331,-0.038 -0.0405,-0.0571 -0.007,-0.0191 -0.0356,-0.0588 -0.0627,-0.0881 -0.0271,-0.0294 -0.0613,-0.0884 -0.0761,-0.13112 -0.0148,-0.0427 -0.0592,-0.16987 -0.0985,-0.28254 -0.0922,-0.26368 -0.26189,-0.84211 -0.30724,-1.04704 -0.0194,-0.0876 -0.0387,-0.16958 -0.043,-0.1821 -0.0196,-0.0577 -0.12189,-0.5552 -0.17465,-0.84917 -0.0415,-0.23141 -0.0646,-0.31908 -0.0797,-0.30299 -0.0181,0.0192 -0.0183,0.0155 -10e-4,-0.0242 0.0165,-0.0396 0.0116,-0.1022 -0.0319,-0.40262 -0.0283,-0.19569 -0.0566,-0.39677 -0.0627,-0.44685 -0.0508,-0.41263 -0.0827,-0.74642 -0.10662,-1.11533 -0.0154,-0.23786 -0.0346,-0.52466 -0.0427,-0.63733 -0.024,-0.33509 -0.0286,-0.56841 -0.03,-1.52504 -10e-4,-0.77559 0.003,-0.99815 0.0307,-1.50228 0.0326,-0.6019 0.11967,-1.54195 0.19117,-2.06379 0.0217,-0.15861 0.0355,-0.3103 0.0306,-0.33709 -0.005,-0.029 -0.002,-0.0354 0.007,-0.0158 0.0101,0.0212 0.0266,-0.0457 0.0461,-0.18763 0.0375,-0.27332 0.17051,-0.95227 0.2253,-1.15022 0.0224,-0.0811 0.0408,-0.16677 0.0408,-0.19049 0,-0.0722 0.29769,-1.05063 0.39061,-1.28386 0.11732,-0.29446 0.15189,-0.34957 0.24855,-0.3962 0.26357,-0.12717 0.47381,0.32626 0.55017,1.18653 0.0258,0.29116 0.008,0.81299 -0.0383,1.13725 -0.0406,0.2832 -0.066,0.37853 -0.20011,0.75172 -0.11279,0.31391 -0.16861,0.50157 -0.16861,0.56685 0,0.0264 -0.006,0.048 -0.0133,0.048 -0.007,0 -0.0405,0.12803 -0.0737,0.28452 -0.0332,0.15649 -0.0656,0.30553 -0.072,0.3312 -0.0373,0.14879 -0.15458,1.06451 -0.18353,1.43285 -0.0566,0.72042 -0.0685,1.30149 -0.0416,2.03725 0.0126,0.34424 0.0305,0.68734 0.0399,0.76245 0.009,0.0751 0.025,0.22876 0.0347,0.34143 0.01,0.11267 0.0408,0.37325 0.0691,0.57908 0.0412,0.29989 0.0562,0.36911 0.0752,0.34851 0.0183,-0.0199 0.0194,-0.0156 0.005,0.019 -0.0399,0.0961 0.10882,0.69469 0.4129,1.66122 0.10697,0.34 0.13153,0.55015 0.13166,1.1266 0,0.37617 -0.006,0.52329 -0.0262,0.68285 -0.028,0.21669 -0.11742,0.58104 -0.16238,0.66193 -0.0149,0.0268 -0.0393,0.0714 -0.0541,0.099 -0.0913,0.16985 -0.24049,0.24091 -0.33723,0.16065 z"
       style="fill:#000000"
       inkscape:connector-curvature="0" />
    <path
       id="path2830"
       d="m -319.51848,841.18107 c -0.0296,-0.0336 -0.27827,-0.18434 -0.55255,-0.33483 -0.27428,-0.15048 -0.50527,-0.28589 -0.5133,-0.30091 -0.008,-0.015 0.0193,-2.15335 0.0609,-4.75185 0.0415,-2.5985 0.0705,-4.94822 0.0645,-5.2216 l -0.011,-0.49706 -0.19748,-0.11736 c -0.10861,-0.0646 -0.60948,-0.34916 -1.11305,-0.63247 -0.50356,-0.28331 -0.9802,-0.55764 -1.05919,-0.60962 -0.079,-0.052 -0.60411,-0.35445 -1.16691,-0.67216 -0.56282,-0.31771 -1.55648,-0.87999 -2.20816,-1.2495 -1.54709,-0.87723 -1.5611,-0.88482 -1.57699,-0.85381 -0.0161,0.0315 -1.07859,6.16591 -1.39704,8.06632 -0.0767,0.45742 -0.12653,0.65505 -0.1656,0.65612 -0.0307,10e-4 -0.3103,-0.12756 -0.62123,-0.28534 l -0.56532,-0.28686 -1.5e-4,-0.21061 c -7e-5,-0.11584 0.10369,-0.7654 0.23064,-1.44347 0.12696,-0.67807 0.47552,-2.54708 0.77459,-4.15335 0.29907,-1.60628 0.59799,-3.20752 0.66426,-3.55831 0.11226,-0.59414 0.33999,-1.81467 1.74748,-9.36575 0.87227,-4.67959 1.45909,-7.84953 2.41735,-13.05833 0.29113,-1.58249 1.96783,-10.68188 2.39383,-12.9912 0.19753,-1.07085 0.52062,-2.82315 0.71797,-3.894 0.19735,-1.07085 0.50149,-2.71741 0.67586,-3.65902 0.17437,-0.94161 0.53333,-2.88914 0.79769,-4.32783 l 0.48063,-2.61582 -0.15051,-0.27112 c -0.34389,-0.61943 -0.25689,-1.55174 0.17938,-1.92221 0.1968,-0.16712 0.29681,-0.15964 0.50899,0.0381 0.40589,0.37821 0.47586,1.28877 0.1448,1.88415 l -0.15075,0.27111 0.48064,2.61582 c 0.26435,1.43869 0.62331,3.38622 0.79768,4.32784 0.17437,0.9416 0.47991,2.59572 0.67896,3.6758 0.19906,1.08008 0.52215,2.83238 0.71798,3.894 0.42546,2.30648 2.10223,11.40628 2.39072,12.97441 0.93504,5.0825 1.99117,10.78631 2.39928,12.95763 0.12839,0.68313 0.3707,1.98225 0.53846,2.88693 0.16776,0.90468 0.53925,2.89868 0.82555,4.4311 0.28628,1.53243 0.76556,4.10045 1.06504,5.70673 0.29949,1.60627 0.6484,3.47528 0.77535,4.15335 0.12695,0.67807 0.23074,1.32763 0.23065,1.44347 l -1.6e-4,0.21061 -0.56532,0.28686 c -0.31093,0.15778 -0.59048,0.28618 -0.62123,0.28534 -0.0391,-10e-4 -0.0889,-0.1987 -0.1656,-0.65612 -0.23375,-1.39494 -1.37957,-8.03192 -1.39046,-8.05401 -0.004,-0.008 -0.24056,0.11734 -0.52601,0.27817 -1.02084,0.57515 -3.30927,1.87589 -4.79167,2.72356 -0.82941,0.47428 -1.62515,0.92641 -1.76832,1.00475 l -0.26031,0.14243 0,0.63856 c 0,0.35122 0.0331,2.69493 0.0736,5.20825 0.0405,2.51333 0.0673,4.58149 0.0596,4.59589 -0.0251,0.0469 -1.08151,0.6404 -1.19233,0.66986 -0.0592,0.0157 -0.13195,10e-4 -0.16157,-0.0326 z m -0.82972,-16.08741 c 0.0531,-3.59011 0.10616,-6.83876 0.1273,-7.79796 l 0.0165,-0.74848 -0.29435,-0.16945 c -0.1619,-0.0932 -0.99719,-0.56748 -1.85622,-1.05396 -0.85903,-0.48648 -1.94964,-1.10544 -2.42358,-1.37548 -0.47395,-0.27003 -0.86425,-0.48615 -0.86735,-0.48025 -0.003,0.006 -0.17781,1.00771 -0.38826,2.22626 -0.21045,1.21856 -0.53428,3.09171 -0.71962,4.16256 -0.49056,2.83435 -0.69942,4.08472 -0.68637,4.10913 0.0117,0.0218 1.242,0.73142 3.91827,2.25991 0.80966,0.46242 1.83564,1.04976 2.27997,1.30519 0.44432,0.25543 0.81779,0.44595 0.82993,0.42337 0.0121,-0.0226 0.0409,-1.30996 0.0638,-2.86084 z m 3.15605,2.28732 c 0.60643,-0.34826 1.77312,-1.01492 2.59265,-1.48149 2.40525,-1.36931 3.2477,-1.85979 3.27571,-1.90712 0.0273,-0.0462 -0.0986,-0.82094 -0.67774,-4.16905 -0.94243,-5.44856 -1.09516,-6.31096 -1.11763,-6.31096 -0.0224,0 -0.66768,0.36375 -4.15526,2.34241 l -1.25667,0.71297 0.001,0.30182 c 0.003,0.66637 0.0566,4.02464 0.0709,4.46437 0.008,0.25848 0.0346,1.86728 0.0582,3.5751 0.0236,1.70782 0.057,3.10513 0.0743,3.10513 0.0173,0 0.52763,-0.28493 1.13405,-0.63318 z m -0.005,-13.6602 c 2.72637,-1.55014 3.69394,-2.11162 3.72424,-2.16117 0.0333,-0.0544 -0.0216,-0.38859 -0.85808,-5.23101 -0.29024,-1.68013 -0.55242,-3.2134 -0.58261,-3.40726 -0.0302,-0.19386 -0.0654,-0.35247 -0.0782,-0.35247 -0.0128,0 -0.23275,0.11879 -0.48869,0.26399 -0.25594,0.14519 -1.0874,0.61631 -1.84768,1.04694 -0.7603,0.43063 -1.38769,0.79264 -1.39423,0.80446 -0.007,0.0118 0.0132,1.48183 0.044,3.26667 0.0307,1.78485 0.0664,3.97026 0.0792,4.85648 0.0128,0.88622 0.0305,1.63446 0.0393,1.66276 0.009,0.0283 0.0294,0.0359 0.0458,0.017 0.0164,-0.019 0.60907,-0.36382 1.31702,-0.76634 z m -2.9534,-0.93016 c 0.0133,-0.91391 0.0492,-3.10782 0.0798,-4.87535 0.0306,-1.76753 0.0422,-3.23558 0.0257,-3.26233 -0.0248,-0.0403 -3.58687,-2.07507 -3.68912,-2.1073 -0.018,-0.006 -0.0609,0.15583 -0.0953,0.35892 -0.0344,0.20309 -0.29973,1.74391 -0.58968,3.42404 -0.77002,4.46198 -0.88986,5.17376 -0.87522,5.19855 0.0129,0.0219 1.24816,0.74023 2.38293,1.38576 0.31596,0.17974 1.04304,0.59695 1.61572,0.92714 0.57268,0.33019 1.05919,0.60302 1.08113,0.60629 0.0277,0.004 0.0473,-0.50334 0.064,-1.65572 z m 0.17951,-11.31274 c 0.0416,-2.08244 0.13005,-7.60592 0.1293,-8.07334 l -9.7e-4,-0.46997 -0.99589,-0.55654 c -0.54774,-0.30609 -1.01512,-0.55534 -1.0386,-0.55388 -0.0237,0.002 -0.15709,0.66934 -0.29901,1.49647 -0.28592,1.6664 -0.90056,5.22751 -1.11468,6.45818 -0.0767,0.441 -0.1356,0.80912 -0.13083,0.81803 0.01,0.0187 3.37089,1.96028 3.40558,1.96733 0.0127,0.003 0.0329,-0.48624 0.0449,-1.08628 z m 2.61943,0.32433 c 0.73366,-0.42166 1.47934,-0.84783 1.65707,-0.94705 0.17773,-0.0992 0.33518,-0.20121 0.34989,-0.22664 0.0147,-0.0255 -0.0368,-0.40743 -0.1145,-0.84889 -0.14065,-0.79927 -0.62666,-3.61601 -1.11445,-6.45901 -0.14097,-0.82161 -0.26744,-1.49331 -0.28105,-1.49269 -0.0479,0.002 -2.0262,1.13414 -2.0456,1.17043 -0.0108,0.0202 0.007,1.72109 0.0402,3.77976 0.0813,5.0879 0.0983,5.79075 0.13943,5.79075 0.0193,0 0.63536,-0.345 1.36901,-0.76666 z M -319.73718,787.06 c 0.0223,-1.53242 0.0443,-2.96664 0.0489,-3.18715 l 0.008,-0.40092 -0.34942,-0.19895 c -0.19218,-0.10942 -0.35925,-0.18056 -0.37127,-0.15808 -0.0204,0.038 -0.23167,1.24478 -0.90069,5.143 -0.14793,0.86194 -0.2618,1.58055 -0.25305,1.59691 0.009,0.0164 0.40176,0.25012 0.87336,0.51947 l 0.85746,0.48972 0.0229,-0.50889 c 0.0126,-0.27989 0.0412,-1.76268 0.0635,-3.29511 z m 1.22484,3.60488 c 0.20694,-0.12209 0.59018,-0.34113 0.85164,-0.48675 0.26145,-0.14562 0.47554,-0.29164 0.47574,-0.32447 2e-4,-0.0329 -0.11948,-0.75793 -0.26595,-1.61132 -0.55351,-3.22482 -0.89072,-5.17747 -0.89618,-5.18939 -0.003,-0.007 -0.1708,0.0823 -0.37265,0.1979 l -0.367,0.21026 0.0176,0.4399 c 0.01,0.24195 0.0338,1.58796 0.0536,2.99115 0.0405,2.86228 0.0699,3.9947 0.10388,3.9947 0.0127,0 0.19237,-0.0999 0.39931,-0.22198 z m -1.1173,-10.28364 c 0.0192,-0.99619 0.029,-1.82249 0.0217,-1.83621 -0.007,-0.0137 -0.14513,0.73669 -0.30621,1.66759 -0.16108,0.93089 -0.2793,1.71668 -0.26271,1.74619 0.0448,0.0797 0.49567,0.32717 0.50459,0.27693 0.004,-0.0238 0.0234,-0.85831 0.0427,-1.8545 z m 1.06529,1.56024 c 0.0117,-0.0218 -0.11042,-0.80059 -0.27134,-1.73055 -0.16091,-0.92997 -0.29862,-1.67955 -0.30601,-1.66573 -0.007,0.0138 0.001,0.73437 0.0193,1.60123 0.018,0.86686 0.0332,1.70126 0.0338,1.85423 l 9.7e-4,0.27812 0.25099,-0.14879 c 0.13804,-0.0818 0.26054,-0.16667 0.27222,-0.18851 z"
       style="fill:#000000"
       inkscape:connector-curvature="0" />
    <path
       id="path2938-1"
       d="m -321.42327,777.28731 c -0.0131,-0.008 -0.0291,-0.0245 -0.0357,-0.0368 -0.007,-0.0123 -0.0314,-0.0378 -0.0552,-0.0567 -0.0238,-0.0189 -0.054,-0.0569 -0.0671,-0.0844 -0.013,-0.0275 -0.0521,-0.10937 -0.0868,-0.18193 -0.0812,-0.16978 -0.2308,-0.54223 -0.27077,-0.67419 -0.0171,-0.0564 -0.0341,-0.10919 -0.0379,-0.11726 -0.0172,-0.0371 -0.10742,-0.35749 -0.15391,-0.54678 -0.0366,-0.14901 -0.0569,-0.20546 -0.0703,-0.1951 -0.0159,0.0124 -0.0161,0.01 -0.001,-0.0156 0.0146,-0.0255 0.0102,-0.0658 -0.0281,-0.25925 -0.025,-0.126 -0.0498,-0.25548 -0.0553,-0.28773 -0.0448,-0.26569 -0.0729,-0.48062 -0.094,-0.71816 -0.0136,-0.15317 -0.0305,-0.33783 -0.0376,-0.41039 -0.0212,-0.21576 -0.0252,-0.366 -0.0265,-0.98198 -9.7e-4,-0.49941 0.003,-0.64272 0.027,-0.96733 0.0288,-0.38757 0.10547,-0.99287 0.16847,-1.32889 0.0192,-0.10212 0.0313,-0.1998 0.0269,-0.21705 -0.005,-0.0187 -0.002,-0.0228 0.006,-0.0102 0.009,0.0136 0.0234,-0.0294 0.0406,-0.12082 0.0331,-0.17599 0.15027,-0.61318 0.19856,-0.74063 0.0198,-0.0522 0.036,-0.10739 0.036,-0.12266 0,-0.0465 0.26236,-0.67651 0.34425,-0.82668 0.10339,-0.18961 0.13386,-0.2251 0.21905,-0.25512 0.23227,-0.0819 0.41757,0.21008 0.48486,0.76402 0.0228,0.18747 0.007,0.52348 -0.0337,0.73228 -0.0358,0.18235 -0.0582,0.24373 -0.17636,0.48404 -0.0994,0.20212 -0.1486,0.32296 -0.1486,0.36499 0,0.017 -0.005,0.0309 -0.0117,0.0309 -0.006,0 -0.0357,0.0824 -0.0649,0.18321 -0.0292,0.10076 -0.0578,0.19673 -0.0635,0.21326 -0.0329,0.0958 -0.13624,0.68545 -0.16174,0.92262 -0.0499,0.46388 -0.0604,0.83804 -0.0367,1.3118 0.0111,0.22166 0.0269,0.44258 0.0352,0.49095 0.008,0.0484 0.022,0.14729 0.0305,0.21985 0.009,0.0725 0.036,0.24033 0.0609,0.37286 0.0364,0.19311 0.0495,0.23768 0.0662,0.22441 0.0161,-0.0128 0.0172,-0.01 0.004,0.0123 -0.0352,0.0619 0.0959,0.44731 0.36389,1.06967 0.0943,0.21892 0.11592,0.35424 0.11603,0.72542 0,0.24223 -0.005,0.33695 -0.0231,0.4397 -0.0247,0.13952 -0.10347,0.37413 -0.14309,0.42622 -0.0132,0.0173 -0.0346,0.0459 -0.0477,0.0637 -0.0805,0.10937 -0.21194,0.15513 -0.2972,0.10345 z"
       style="fill:#000000"
       inkscape:connector-curvature="0" />
    <path
       id="path2986-7"
       d="m -313.11647,782.83496 c 0.0634,-0.0484 0.12215,-0.12314 0.1333,-0.16967 0.005,-0.0223 0.0377,-0.0873 0.0719,-0.14438 0.0342,-0.0571 0.0801,-0.14407 0.10195,-0.19328 0.0219,-0.0492 0.0662,-0.14777 0.0986,-0.21905 0.1801,-0.39638 0.44949,-1.09497 0.56219,-1.45787 0.0387,-0.12473 0.0774,-0.23844 0.086,-0.25269 0.009,-0.0143 0.0156,-0.0398 0.0156,-0.0567 0,-0.0169 0.01,-0.0578 0.0218,-0.0907 0.0485,-0.13358 0.12748,-0.4152 0.12748,-0.45465 0,-0.0181 0.007,-0.0446 0.016,-0.0589 0.009,-0.0143 0.0521,-0.17182 0.0964,-0.35017 0.10637,-0.42874 0.11034,-0.44531 0.12004,-0.50187 0.004,-0.0267 0.0115,-0.0559 0.0155,-0.0648 0.004,-0.009 0.0347,-0.1547 0.0684,-0.32398 0.0337,-0.16927 0.0687,-0.34422 0.0777,-0.38876 0.009,-0.0445 0.0164,-0.0992 0.0164,-0.12149 6e-5,-0.0223 0.006,-0.0405 0.0125,-0.0405 0.007,0 0.0124,-0.0153 0.0124,-0.034 0,-0.0187 0.0116,-0.0952 0.0257,-0.17009 0.0141,-0.0749 0.0536,-0.31836 0.0878,-0.54108 0.0341,-0.22273 0.067,-0.43412 0.073,-0.46976 0.006,-0.0357 0.0169,-0.11582 0.0242,-0.17818 0.043,-0.36557 0.065,-0.54194 0.0748,-0.59935 0.0201,-0.11851 0.0865,-0.93078 0.12584,-1.53885 0.0836,-1.2933 0.0756,-2.97372 -0.0204,-4.29261 -0.0513,-0.70421 -0.14415,-1.60467 -0.20384,-1.97622 -0.006,-0.0357 -0.0281,-0.18871 -0.0496,-0.34017 -0.0216,-0.15145 -0.0439,-0.29816 -0.0497,-0.32601 -0.006,-0.0278 -0.0275,-0.16159 -0.0483,-0.29719 -0.0208,-0.1356 -0.0512,-0.30234 -0.0674,-0.37052 -0.0162,-0.0682 -0.0372,-0.175 -0.0467,-0.23736 -0.009,-0.0624 -0.0265,-0.14984 -0.0378,-0.19439 -0.0113,-0.0445 -0.0526,-0.22357 -0.0917,-0.39785 -0.039,-0.17427 -0.0958,-0.41131 -0.12615,-0.52677 -0.0303,-0.11544 -0.0552,-0.22208 -0.0552,-0.23696 0,-0.0149 -0.0114,-0.0539 -0.0253,-0.0867 -0.0139,-0.0328 -0.0226,-0.0781 -0.0193,-0.10056 0.004,-0.0253 -9.7e-4,-0.034 -0.012,-0.0229 -0.0103,0.0102 -0.0181,-10e-4 -0.0182,-0.0259 -7e-5,-0.0242 -0.0155,-0.09 -0.0342,-0.14634 -0.0187,-0.0563 -0.0452,-0.14286 -0.0589,-0.19233 -0.0137,-0.0495 -0.0382,-0.12732 -0.0544,-0.173 -0.0162,-0.0457 -0.0518,-0.16097 -0.079,-0.25622 -0.099,-0.34673 -0.57793,-1.56006 -0.61583,-1.56006 -0.009,0 -0.0156,-0.0125 -0.0156,-0.0279 0,-0.0315 -0.15141,-0.33715 -0.23629,-0.47696 -0.0522,-0.086 -0.0647,-0.0922 -0.18655,-0.0928 -0.14161,-5.2e-4 -0.20302,0.0423 -0.28065,0.19657 -0.0236,0.047 -0.0481,0.0723 -0.0565,0.0587 -0.01,-0.0157 -0.0116,-0.0102 -0.005,0.0159 0.006,0.0239 -0.006,0.0906 -0.0297,0.16679 -0.059,0.19114 -0.0783,0.36172 -0.0786,0.69427 -2.1e-4,0.20682 0.006,0.33395 0.0221,0.43736 0.0265,0.17238 0.12411,0.48595 0.15127,0.48595 0.0121,0 0.0163,0.0183 0.0116,0.0503 -0.004,0.0286 -0.002,0.0418 0.005,0.0306 0.0117,-0.0189 0.0914,0.12526 0.14315,0.25924 0.0138,0.0357 0.0455,0.10476 0.0705,0.1536 0.0705,0.13761 0.35843,0.89484 0.42238,1.1108 0.0315,0.10641 0.0692,0.22124 0.0837,0.25519 0.0145,0.034 0.0264,0.0781 0.0264,0.0981 0,0.02 0.0117,0.0624 0.0259,0.0942 0.0142,0.0318 0.0229,0.078 0.0193,0.10274 -0.004,0.0266 -9.7e-4,0.0388 0.009,0.0297 0.008,-0.008 0.0258,0.0325 0.0388,0.0907 0.013,0.0583 0.0311,0.11759 0.0401,0.13184 0.009,0.0142 0.0165,0.0405 0.0165,0.0583 0,0.0178 0.0232,0.12277 0.0515,0.23327 0.0283,0.1105 0.0655,0.26651 0.0827,0.34669 0.0172,0.0802 0.0348,0.15308 0.0392,0.16198 0.0104,0.0212 0.15309,0.76075 0.17508,0.90712 0.009,0.0624 0.0202,0.12068 0.024,0.12959 0.009,0.0202 0.031,0.17207 0.0715,0.48596 0.0173,0.13363 0.036,0.27213 0.0417,0.30777 0.006,0.0356 0.0223,0.17413 0.0371,0.30777 0.0147,0.13364 0.0341,0.30129 0.0429,0.37256 0.0228,0.18319 0.0768,0.93371 0.10003,1.39167 0.0259,0.51055 0.0355,1.43888 0.0192,1.86424 -0.007,0.18709 -0.0157,0.42168 -0.019,0.52131 -0.003,0.0996 -0.015,0.31831 -0.0261,0.48596 -0.0111,0.16764 -0.0282,0.42854 -0.0382,0.57978 -0.01,0.15124 -0.0235,0.28901 -0.0301,0.30615 -0.007,0.0172 -0.012,0.055 -0.012,0.0841 0,0.0292 -0.0105,0.1392 -0.0234,0.2446 -0.0129,0.1054 -0.0308,0.26088 -0.04,0.34552 -0.009,0.0846 -0.021,0.15389 -0.0264,0.15389 -0.005,0 -0.01,0.0258 -0.01,0.0574 0,0.15588 -0.22557,1.46846 -0.29079,1.69201 -0.0126,0.0433 -0.0328,0.13454 -0.0752,0.34016 -0.007,0.0357 -0.0162,0.0721 -0.0196,0.081 -0.006,0.0154 -0.0569,0.2095 -0.14578,0.55512 -0.0221,0.0858 -0.05,0.1829 -0.0622,0.21579 -0.0269,0.0729 -0.093,0.29052 -0.10663,0.35117 -0.005,0.0243 -0.0187,0.0442 -0.0293,0.0442 -0.0121,0 -0.0167,0.0182 -0.0122,0.0486 0.006,0.0441 -0.006,0.0639 -0.0334,0.0517 -0.006,-0.003 -0.007,0.0102 -0.002,0.0281 0.0117,0.0493 -0.13606,0.45912 -0.30416,0.84352 -0.0506,0.11581 -0.10525,0.2447 -0.12134,0.28639 -0.0161,0.0417 -0.0371,0.0679 -0.0467,0.0584 -0.0102,-0.0103 -0.0152,-0.001 -0.0119,0.0214 0.003,0.0214 -0.027,0.10047 -0.0667,0.17579 -0.10944,0.20744 -0.1682,0.36579 -0.20186,0.54399 -0.0268,0.14182 -0.0305,0.20487 -0.0305,0.52001 0,0.31727 0.003,0.37704 0.0308,0.51836 0.0418,0.21618 0.11788,0.42212 0.193,0.52218 0.0499,0.0665 0.0842,0.0851 0.17411,0.0942 0.0616,0.006 0.13151,-0.004 0.15546,-0.0218 z"
       style="fill:#000000"
       inkscape:connector-curvature="0" />
    <path
       id="path2938-4"
       d="m -315.02824,779.86679 c 0.0148,-0.0123 0.0331,-0.038 0.0405,-0.0571 0.007,-0.0191 0.0356,-0.0588 0.0627,-0.0881 0.0271,-0.0294 0.0613,-0.0884 0.0762,-0.13112 0.0148,-0.0427 0.0592,-0.16986 0.0985,-0.28253 0.0922,-0.26368 0.26188,-0.84211 0.30724,-1.04705 0.0194,-0.0876 0.0387,-0.16957 0.043,-0.18209 0.0195,-0.0577 0.12189,-0.5552 0.17464,-0.84917 0.0416,-0.23141 0.0646,-0.31908 0.0798,-0.30299 0.0181,0.0192 0.0183,0.0155 0.001,-0.0242 -0.0165,-0.0396 -0.0116,-0.1022 0.0319,-0.40263 0.0283,-0.19568 0.0566,-0.39676 0.0627,-0.44684 0.0508,-0.41263 0.0827,-0.74642 0.10663,-1.11533 0.0154,-0.23786 0.0346,-0.52466 0.0427,-0.63733 0.024,-0.33509 0.0286,-0.56841 0.0301,-1.52504 0.001,-0.77559 -0.003,-0.99815 -0.0307,-1.50228 -0.0326,-0.6019 -0.11967,-1.54195 -0.19116,-2.0638 -0.0217,-0.1586 -0.0355,-0.31029 -0.0306,-0.33708 0.005,-0.0291 0.002,-0.0354 -0.007,-0.0158 -0.0101,0.0212 -0.0266,-0.0457 -0.0461,-0.18763 -0.0375,-0.27332 -0.17051,-0.95227 -0.2253,-1.15021 -0.0224,-0.0811 -0.0408,-0.16678 -0.0408,-0.1905 0,-0.0722 -0.2977,-1.05063 -0.39062,-1.28385 -0.11731,-0.29446 -0.15189,-0.34957 -0.24854,-0.39621 -0.26357,-0.12717 -0.47381,0.32625 -0.55017,1.18653 -0.0258,0.29116 -0.008,0.81299 0.0382,1.13725 0.0406,0.2832 0.066,0.37853 0.20012,0.75173 0.11279,0.31391 0.16861,0.50156 0.16861,0.56684 0,0.0264 0.006,0.048 0.0133,0.048 0.007,0 0.0405,0.12803 0.0737,0.28452 0.0332,0.15649 0.0656,0.30553 0.072,0.3312 0.0373,0.14879 0.15459,1.06451 0.18354,1.43284 0.0566,0.72043 0.0685,1.3015 0.0416,2.03726 -0.0126,0.34423 -0.0305,0.68734 -0.0399,0.76245 -0.009,0.0751 -0.025,0.22876 -0.0347,0.34143 -0.01,0.11267 -0.0408,0.37325 -0.0691,0.57907 -0.0412,0.2999 -0.0562,0.36912 -0.0752,0.34852 -0.0183,-0.0199 -0.0194,-0.0156 -0.005,0.019 0.0399,0.0961 -0.10882,0.69468 -0.41291,1.66122 -0.10696,0.33999 -0.13152,0.55015 -0.13164,1.1266 0,0.37618 0.006,0.52329 0.0262,0.68286 0.028,0.21667 0.11742,0.58103 0.16237,0.66192 0.0149,0.0268 0.0393,0.0714 0.0541,0.099 0.0913,0.16985 0.24049,0.24091 0.33723,0.16065 z"
       style="fill:#000000"
       inkscape:connector-curvature="0" />
    <path
       id="path2938-1-0"
       d="m -317.27056,777.25855 c 0.0131,-0.008 0.0291,-0.0245 0.0357,-0.0368 0.007,-0.0123 0.0314,-0.0378 0.0553,-0.0567 0.0239,-0.0189 0.0541,-0.0569 0.0671,-0.0844 0.013,-0.0275 0.0521,-0.10938 0.0869,-0.18193 0.0812,-0.16978 0.23079,-0.54224 0.27076,-0.6742 0.0171,-0.0564 0.0341,-0.10918 0.0379,-0.11725 0.0173,-0.0371 0.10743,-0.35749 0.15392,-0.54678 0.0366,-0.14901 0.0569,-0.20546 0.0703,-0.1951 0.0159,0.0124 0.0161,0.01 0.001,-0.0156 -0.0146,-0.0255 -0.0102,-0.0658 0.0281,-0.25926 0.025,-0.12599 0.0499,-0.25547 0.0553,-0.28771 0.0448,-0.2657 0.0729,-0.48064 0.094,-0.71817 0.0136,-0.15317 0.0305,-0.33784 0.0376,-0.41038 0.0212,-0.21578 0.0252,-0.36601 0.0265,-0.98199 9.7e-4,-0.49941 -0.003,-0.64272 -0.0271,-0.96733 -0.0287,-0.38757 -0.10547,-0.99288 -0.16848,-1.32889 -0.0191,-0.10213 -0.0313,-0.1998 -0.0269,-0.21705 0.005,-0.0187 0.002,-0.0228 -0.006,-0.0102 -0.009,0.0136 -0.0234,-0.0294 -0.0406,-0.12081 -0.0331,-0.176 -0.15028,-0.61318 -0.19856,-0.74064 -0.0198,-0.0522 -0.036,-0.10739 -0.036,-0.12266 0,-0.0465 -0.26236,-0.67651 -0.34425,-0.82668 -0.1034,-0.18961 -0.13387,-0.22509 -0.21905,-0.25512 -0.23228,-0.0819 -0.41757,0.21008 -0.48487,0.76402 -0.0228,0.18747 -0.007,0.52348 0.0337,0.73228 0.0358,0.18235 0.0582,0.24373 0.17637,0.48404 0.0994,0.20213 0.1486,0.32295 0.1486,0.36499 0,0.017 0.005,0.0309 0.0117,0.0309 0.007,0 0.0357,0.0824 0.0649,0.1832 0.0292,0.10077 0.0578,0.19673 0.0635,0.21327 0.0329,0.0958 0.13623,0.68544 0.16174,0.92261 0.0499,0.46389 0.0604,0.83804 0.0366,1.3118 -0.0111,0.22166 -0.027,0.44259 -0.0352,0.49095 -0.008,0.0484 -0.022,0.1473 -0.0305,0.21985 -0.009,0.0725 -0.036,0.24034 -0.0609,0.37287 -0.0364,0.19311 -0.0495,0.23768 -0.0662,0.22441 -0.0161,-0.0128 -0.0171,-0.01 -0.004,0.0123 0.0352,0.0619 -0.0959,0.44731 -0.36388,1.06967 -0.0943,0.21892 -0.11592,0.35424 -0.11603,0.72542 0,0.24223 0.005,0.33695 0.0231,0.4397 0.0247,0.13952 0.10347,0.37413 0.14309,0.42622 0.0132,0.0173 0.0346,0.046 0.0477,0.0637 0.0805,0.10937 0.21194,0.15513 0.2972,0.10345 z"
       style="fill:#000000"
       inkscape:connector-curvature="0" />
    <path
       id="path2986-4"
       d="m -46.165269,784.18692 c -0.0634,-0.0484 -0.12214,-0.12314 -0.13329,-0.16967 -0.005,-0.0223 -0.0377,-0.0873 -0.0719,-0.14438 -0.0342,-0.0571 -0.0801,-0.14407 -0.10194,-0.19328 -0.0219,-0.0492 -0.0662,-0.14777 -0.0986,-0.21904 -0.1801,-0.39638 -0.44949,-1.09498 -0.56218,-1.45787 -0.0387,-0.12474 -0.0774,-0.23844 -0.086,-0.2527 -0.009,-0.0143 -0.0156,-0.0398 -0.0156,-0.0567 0,-0.017 -0.01,-0.0578 -0.0218,-0.0907 -0.0485,-0.13358 -0.12747,-0.4152 -0.12747,-0.45465 0,-0.0181 -0.007,-0.0446 -0.0159,-0.0589 -0.009,-0.0143 -0.0521,-0.17182 -0.0964,-0.35017 -0.10637,-0.42874 -0.11033,-0.44531 -0.12004,-0.50186 -0.004,-0.0267 -0.0115,-0.0559 -0.0155,-0.0648 -0.004,-0.009 -0.0347,-0.1547 -0.0684,-0.32397 -0.0337,-0.16928 -0.0687,-0.34422 -0.0777,-0.38877 -0.009,-0.0445 -0.0164,-0.0992 -0.0164,-0.12149 -5e-5,-0.0223 -0.006,-0.0405 -0.0125,-0.0405 -0.007,0 -0.0125,-0.0153 -0.0125,-0.034 0,-0.0187 -0.0116,-0.0952 -0.0257,-0.17009 -0.0141,-0.0749 -0.0536,-0.31835 -0.0878,-0.54108 -0.0341,-0.22273 -0.067,-0.43412 -0.073,-0.46976 -0.006,-0.0357 -0.0169,-0.11582 -0.0242,-0.17818 -0.043,-0.36557 -0.065,-0.54194 -0.0748,-0.59935 -0.0201,-0.11851 -0.0865,-0.93078 -0.12583,-1.53885 -0.0836,-1.2933 -0.0756,-2.97373 0.0204,-4.29262 0.0513,-0.70421 0.14414,-1.60467 0.20384,-1.97622 0.006,-0.0357 0.0281,-0.18871 0.0496,-0.34017 0.0216,-0.15145 0.0439,-0.29816 0.0497,-0.32601 0.006,-0.0278 0.0275,-0.16159 0.0483,-0.29719 0.0208,-0.1356 0.0512,-0.30234 0.0674,-0.37052 0.0162,-0.0682 0.0372,-0.175 0.0467,-0.23736 0.009,-0.0624 0.0265,-0.14984 0.0379,-0.19439 0.0113,-0.0445 0.0526,-0.22357 0.0917,-0.39785 0.039,-0.17427 0.0958,-0.41131 0.12615,-0.52676 0.0303,-0.11545 0.0552,-0.22209 0.0552,-0.23697 0,-0.0149 0.0114,-0.0539 0.0253,-0.0867 0.0139,-0.0328 0.0226,-0.0781 0.0193,-0.10056 -0.004,-0.0253 9.7e-4,-0.034 0.012,-0.0229 0.0102,0.0103 0.0181,-0.001 0.0182,-0.0259 7e-5,-0.0242 0.0155,-0.09 0.0342,-0.14634 0.0187,-0.0563 0.0452,-0.14286 0.0589,-0.19233 0.0137,-0.0495 0.0382,-0.12733 0.0544,-0.173 0.0162,-0.0457 0.0518,-0.16097 0.079,-0.25622 0.099,-0.34673 0.57793,-1.56006 0.61582,-1.56006 0.009,0 0.0156,-0.0126 0.0156,-0.0279 0,-0.0315 0.15141,-0.33716 0.23629,-0.47696 0.0522,-0.086 0.0647,-0.0922 0.18655,-0.0928 0.1416,-5.3e-4 0.20301,0.0423 0.28065,0.19657 0.0236,0.047 0.0481,0.0723 0.0565,0.0587 0.01,-0.0157 0.0116,-0.0102 0.005,0.0159 -0.006,0.0239 0.006,0.0906 0.0297,0.16679 0.059,0.19114 0.0783,0.36172 0.0786,0.69426 2e-4,0.20682 -0.006,0.33395 -0.0221,0.43736 -0.0265,0.17239 -0.12411,0.48596 -0.15126,0.48596 -0.0121,0 -0.0163,0.0183 -0.0116,0.0503 0.004,0.0286 0.002,0.0418 -0.005,0.0306 -0.0117,-0.0189 -0.0914,0.12525 -0.14316,0.25924 -0.0138,0.0357 -0.0455,0.10476 -0.0705,0.1536 -0.0705,0.13761 -0.35842,0.89484 -0.42237,1.11079 -0.0315,0.10641 -0.0692,0.22124 -0.0837,0.25519 -0.0145,0.034 -0.0264,0.0781 -0.0264,0.0981 0,0.02 -0.0117,0.0624 -0.0259,0.0942 -0.0143,0.0318 -0.0229,0.078 -0.0193,0.10274 0.004,0.0266 4.1e-4,0.0388 -0.009,0.0297 -0.008,-0.008 -0.0258,0.0325 -0.0388,0.0907 -0.013,0.0583 -0.0311,0.11759 -0.0401,0.13184 -0.009,0.0143 -0.0165,0.0405 -0.0165,0.0583 0,0.0178 -0.0232,0.12277 -0.0515,0.23327 -0.0283,0.1105 -0.0655,0.26651 -0.0827,0.34669 -0.0172,0.0802 -0.0348,0.15308 -0.0391,0.16199 -0.0104,0.0212 -0.15309,0.76074 -0.17508,0.90711 -0.009,0.0624 -0.0202,0.12068 -0.024,0.12959 -0.009,0.0202 -0.031,0.17207 -0.0715,0.48596 -0.0172,0.13364 -0.036,0.27213 -0.0417,0.30777 -0.006,0.0357 -0.0223,0.17413 -0.0371,0.30777 -0.0147,0.13364 -0.0341,0.30129 -0.043,0.37256 -0.0228,0.18319 -0.0768,0.93371 -0.10004,1.39167 -0.0259,0.51055 -0.0355,1.43889 -0.0192,1.86425 0.007,0.18709 0.0157,0.42169 0.019,0.52131 0.003,0.0996 0.015,0.31831 0.0261,0.48596 0.0111,0.16764 0.0282,0.42854 0.0381,0.57978 0.01,0.15124 0.0235,0.28901 0.0301,0.30615 0.007,0.0172 0.012,0.055 0.012,0.0841 0,0.0292 0.0105,0.13921 0.0234,0.2446 0.0128,0.1054 0.0308,0.26089 0.04,0.34552 0.009,0.0846 0.021,0.15389 0.0264,0.15389 0.005,0 0.01,0.0258 0.01,0.0574 0,0.15588 0.22559,1.46846 0.29079,1.69201 0.0127,0.0433 0.0328,0.13454 0.0752,0.34017 0.007,0.0357 0.0161,0.0721 0.0196,0.081 0.006,0.0154 0.0569,0.2095 0.14578,0.55512 0.0221,0.0858 0.05,0.1829 0.0622,0.21579 0.0269,0.0729 0.093,0.29052 0.10664,0.35117 0.005,0.0243 0.0187,0.0442 0.0293,0.0442 0.0121,0 0.0167,0.0182 0.0122,0.0486 -0.007,0.0441 0.006,0.0639 0.0334,0.0517 0.006,-0.003 0.007,0.0102 0.002,0.0281 -0.0117,0.0493 0.13606,0.45912 0.30416,0.84352 0.0507,0.11582 0.10525,0.2447 0.12134,0.28639 0.0161,0.0417 0.0371,0.0679 0.0467,0.0584 0.0102,-0.0103 0.0152,-10e-4 0.0119,0.0214 -0.003,0.0213 0.0269,0.10047 0.0667,0.17579 0.10944,0.20743 0.16821,0.36579 0.20187,0.54398 0.0268,0.14182 0.0305,0.20488 0.0305,0.52002 0,0.31727 -0.003,0.37704 -0.0308,0.51835 -0.0417,0.21619 -0.11788,0.42213 -0.193,0.52218 -0.0499,0.0665 -0.0842,0.0851 -0.17412,0.0942 -0.0615,0.006 -0.13151,-0.004 -0.15545,-0.0219 z"
       style="fill:#000000;stroke:#ca0000;stroke-opacity:1"
       inkscape:connector-curvature="0" />
    <path
       id="path2938-8"
       d="m -44.253489,781.21876 c -0.0148,-0.0123 -0.0331,-0.038 -0.0405,-0.0571 -0.007,-0.0191 -0.0356,-0.0588 -0.0627,-0.0881 -0.0271,-0.0294 -0.0613,-0.0884 -0.0761,-0.13112 -0.0148,-0.0427 -0.0592,-0.16987 -0.0985,-0.28254 -0.0922,-0.26368 -0.26189,-0.84211 -0.30724,-1.04704 -0.0194,-0.0876 -0.0387,-0.16958 -0.043,-0.1821 -0.0196,-0.0577 -0.12189,-0.5552 -0.17465,-0.84917 -0.0415,-0.23141 -0.0646,-0.31908 -0.0797,-0.30299 -0.0181,0.0192 -0.0183,0.0155 -10e-4,-0.0242 0.0165,-0.0396 0.0116,-0.1022 -0.0319,-0.40262 -0.0283,-0.19569 -0.0566,-0.39677 -0.0627,-0.44685 -0.0508,-0.41263 -0.0827,-0.74642 -0.10662,-1.11533 -0.0154,-0.23786 -0.0346,-0.52466 -0.0427,-0.63733 -0.024,-0.33509 -0.0286,-0.56841 -0.03,-1.52504 -0.001,-0.7756 0.003,-0.99816 0.0307,-1.50229 0.0326,-0.6019 0.11967,-1.54195 0.19117,-2.06379 0.0217,-0.15861 0.0355,-0.3103 0.0306,-0.33709 -0.005,-0.029 -0.002,-0.0354 0.007,-0.0158 0.0101,0.0212 0.0266,-0.0457 0.0461,-0.18763 0.0375,-0.27332 0.17051,-0.95227 0.2253,-1.15022 0.0224,-0.0811 0.0408,-0.16677 0.0408,-0.19049 0,-0.0722 0.29769,-1.05063 0.39061,-1.28386 0.11732,-0.29446 0.15189,-0.34957 0.24855,-0.3962 0.26357,-0.12717 0.47381,0.32626 0.55017,1.18653 0.0258,0.29116 0.008,0.81299 -0.0383,1.13725 -0.0406,0.2832 -0.066,0.37853 -0.20011,0.75172 -0.11279,0.31391 -0.16861,0.50157 -0.16861,0.56685 0,0.0264 -0.006,0.048 -0.0133,0.048 -0.007,0 -0.0405,0.12803 -0.0737,0.28452 -0.0332,0.15649 -0.0656,0.30553 -0.072,0.3312 -0.0373,0.14879 -0.15458,1.06451 -0.18353,1.43285 -0.0566,0.72043 -0.0685,1.3015 -0.0416,2.03726 0.0126,0.34424 0.0305,0.68734 0.0399,0.76245 0.009,0.0751 0.025,0.22876 0.0347,0.34143 0.01,0.11267 0.0408,0.37325 0.0691,0.57908 0.0412,0.29989 0.0562,0.36911 0.0752,0.34851 0.0183,-0.0199 0.0194,-0.0156 0.005,0.019 -0.0399,0.0961 0.10882,0.69469 0.4129,1.66122 0.10697,0.34 0.13153,0.55015 0.13166,1.1266 0,0.37617 -0.006,0.52329 -0.0262,0.68285 -0.028,0.21669 -0.11742,0.58104 -0.16238,0.66193 -0.0149,0.0268 -0.0393,0.0714 -0.0541,0.099 -0.0913,0.16985 -0.24049,0.24091 -0.33723,0.16065 z"
       style="fill:#000000;stroke:#ca0000;stroke-opacity:1"
       inkscape:connector-curvature="0" />
    <path
       id="path2830-8"
       d="m -40.106379,842.50427 c -0.0296,-0.0336 -0.27827,-0.18434 -0.55255,-0.33483 -0.27428,-0.15048 -0.50527,-0.28589 -0.5133,-0.30091 -0.008,-0.015 0.0193,-2.15335 0.0609,-4.75185 0.0415,-2.5985 0.0705,-4.94822 0.0645,-5.2216 l -0.011,-0.49706 -0.19748,-0.11736 c -0.10861,-0.0646 -0.60948,-0.34916 -1.11305,-0.63247 -0.50356,-0.28331 -0.9802,-0.55764 -1.05919,-0.60962 -0.079,-0.052 -0.60411,-0.35445 -1.16691,-0.67216 -0.56282,-0.31771 -1.55648,-0.87999 -2.20816,-1.2495 -1.54709,-0.87723 -1.5611,-0.88482 -1.57699,-0.85381 -0.0161,0.0315 -1.07859,6.16591 -1.39704,8.06632 -0.0767,0.45742 -0.12653,0.65505 -0.1656,0.65612 -0.0307,10e-4 -0.3103,-0.12756 -0.62123,-0.28534 l -0.56532,-0.28686 -1.5e-4,-0.21061 c -7e-5,-0.11584 0.10369,-0.7654 0.23064,-1.44347 0.12696,-0.67807 0.47552,-2.54708 0.77459,-4.15335 0.29907,-1.60628 0.59799,-3.20752 0.66426,-3.55831 0.11226,-0.59414 0.33999,-1.81467 1.74748,-9.36575 0.87227,-4.67959 1.45909,-7.84953 2.41735,-13.05833 0.29113,-1.58249 1.96783,-10.68188 2.39383,-12.9912 0.19753,-1.07085 0.52062,-2.82315 0.71797,-3.894 0.19735,-1.07085 0.50149,-2.71741 0.67586,-3.65902 0.17437,-0.94161 0.53333,-2.88914 0.79769,-4.32783 l 0.48063,-2.61582 -0.15051,-0.27112 c -0.34389,-0.61943 -0.25689,-1.55174 0.17938,-1.92221 0.1968,-0.16712 0.29681,-0.15964 0.50899,0.0381 0.40589,0.37821 0.47586,1.28877 0.1448,1.88415 l -0.15075,0.27111 0.48064,2.61582 c 0.26435,1.43869 0.62331,3.38622 0.79768,4.32784 0.17437,0.9416 0.47991,2.59572 0.67896,3.6758 0.19906,1.08008 0.52215,2.83238 0.71798,3.894 0.42546,2.30648 2.10223,11.40628 2.39072,12.97441 0.93504,5.0825 1.99117,10.78631 2.39928,12.95763 0.12839,0.68313 0.3707,1.98225 0.53846,2.88693 0.16776,0.90468 0.53925,2.89868 0.82555,4.4311 0.28628,1.53243 0.76556,4.10045 1.06504,5.70673 0.29949,1.60627 0.6484,3.47528 0.77535,4.15335 0.12695,0.67807 0.23074,1.32763 0.23065,1.44347 l -1.6e-4,0.21061 -0.56532,0.28686 c -0.31093,0.15778 -0.59048,0.28618 -0.62123,0.28534 -0.0391,-0.001 -0.0889,-0.1987 -0.1656,-0.65612 -0.23375,-1.39494 -1.37957,-8.03192 -1.39046,-8.05401 -0.004,-0.008 -0.24056,0.11734 -0.52601,0.27817 -1.02084,0.57515 -3.30927,1.87589 -4.79167,2.72356 -0.82941,0.47428 -1.62515,0.92641 -1.76832,1.00475 l -0.26031,0.14243 0,0.63856 c 0,0.35122 0.0331,2.69493 0.0736,5.20825 0.0405,2.51333 0.0673,4.58149 0.0596,4.59589 -0.0251,0.0469 -1.08151,0.6404 -1.19233,0.66986 -0.0592,0.0157 -0.13195,10e-4 -0.16157,-0.0326 z m -0.82972,-16.08741 c 0.0531,-3.59011 0.10616,-6.83876 0.1273,-7.79796 l 0.0165,-0.74848 -0.29435,-0.16945 c -0.1619,-0.0932 -0.99719,-0.56748 -1.85622,-1.05396 -0.85903,-0.48648 -1.94964,-1.10544 -2.42358,-1.37548 -0.47395,-0.27003 -0.86425,-0.48615 -0.86735,-0.48025 -0.003,0.006 -0.17781,1.00771 -0.38826,2.22626 -0.21045,1.21856 -0.53428,3.09171 -0.71962,4.16256 -0.49056,2.83435 -0.69942,4.08472 -0.68637,4.10913 0.0117,0.0218 1.242,0.73142 3.91827,2.25991 0.80966,0.46242 1.83564,1.04976 2.27997,1.30519 0.44432,0.25543 0.81779,0.44595 0.82993,0.42337 0.0121,-0.0226 0.0409,-1.30996 0.0638,-2.86084 z m 3.15605,2.28732 c 0.60643,-0.34826 1.77312,-1.01492 2.59265,-1.48149 2.40525,-1.36931 3.2477,-1.85979 3.27571,-1.90712 0.0273,-0.0462 -0.0986,-0.82094 -0.67774,-4.16905 -0.94243,-5.44856 -1.09516,-6.31096 -1.11763,-6.31096 -0.0224,0 -0.66768,0.36375 -4.15526,2.34241 l -1.25667,0.71297 10e-4,0.30182 c 0.003,0.66637 0.0566,4.02464 0.0709,4.46437 0.008,0.25848 0.0346,1.86728 0.0582,3.5751 0.0236,1.70782 0.057,3.10513 0.0743,3.10513 0.0173,0 0.52763,-0.28493 1.13405,-0.63318 z m -0.005,-13.6602 c 2.72637,-1.55014 3.69394,-2.11162 3.72424,-2.16117 0.0333,-0.0544 -0.0216,-0.38859 -0.85808,-5.23101 -0.29024,-1.68013 -0.55242,-3.2134 -0.58261,-3.40726 -0.0302,-0.19386 -0.0654,-0.35247 -0.0782,-0.35247 -0.0128,0 -0.23275,0.11879 -0.48869,0.26399 -0.25594,0.14519 -1.0874,0.61631 -1.84768,1.04694 -0.7603,0.43063 -1.38769,0.79264 -1.39423,0.80446 -0.007,0.0118 0.0132,1.48183 0.044,3.26667 0.0307,1.78485 0.0664,3.97026 0.0792,4.85648 0.0128,0.88622 0.0305,1.63446 0.0393,1.66276 0.009,0.0283 0.0294,0.0359 0.0458,0.017 0.0164,-0.019 0.60907,-0.36382 1.31702,-0.76634 z m -2.9534,-0.93016 c 0.0133,-0.91391 0.0492,-3.10782 0.0798,-4.87535 0.0306,-1.76753 0.0422,-3.23558 0.0257,-3.26233 -0.0248,-0.0403 -3.58687,-2.07507 -3.68912,-2.1073 -0.018,-0.006 -0.0609,0.15583 -0.0953,0.35892 -0.0344,0.20309 -0.29973,1.74391 -0.58968,3.42404 -0.77002,4.46198 -0.88986,5.17376 -0.87522,5.19855 0.0129,0.0219 1.24816,0.74023 2.38293,1.38576 0.31596,0.17974 1.04304,0.59695 1.61572,0.92714 0.57268,0.33019 1.05919,0.60302 1.08113,0.60629 0.0277,0.004 0.0473,-0.50334 0.064,-1.65572 z m 0.17951,-11.31274 c 0.0416,-2.08244 0.13005,-7.60592 0.1293,-8.07334 l -9.7e-4,-0.46997 -0.99589,-0.55654 c -0.54774,-0.30609 -1.01512,-0.55534 -1.0386,-0.55388 -0.0237,0.002 -0.15709,0.66934 -0.29901,1.49647 -0.28592,1.6664 -0.90056,5.22751 -1.11468,6.45818 -0.0767,0.441 -0.1356,0.80912 -0.13083,0.81803 0.01,0.0187 3.37089,1.96028 3.40558,1.96733 0.0127,0.003 0.0329,-0.48624 0.0449,-1.08628 z m 2.61943,0.32433 c 0.73366,-0.42166 1.47934,-0.84783 1.65707,-0.94705 0.17773,-0.0992 0.33518,-0.20121 0.34989,-0.22664 0.0147,-0.0255 -0.0368,-0.40743 -0.1145,-0.84889 -0.14065,-0.79927 -0.62666,-3.61601 -1.11445,-6.45901 -0.14097,-0.82161 -0.26744,-1.49331 -0.28105,-1.49269 -0.0479,0.002 -2.0262,1.13414 -2.0456,1.17043 -0.0108,0.0202 0.007,1.72109 0.0402,3.77976 0.0813,5.0879 0.0983,5.79075 0.13943,5.79075 0.0193,0 0.63536,-0.345 1.36901,-0.76666 z m -2.38557,-14.74221 c 0.0223,-1.53242 0.0443,-2.96664 0.0489,-3.18715 l 0.008,-0.40092 -0.34942,-0.19895 c -0.19218,-0.10942 -0.35925,-0.18056 -0.37127,-0.15808 -0.0204,0.038 -0.23167,1.24478 -0.90069,5.143 -0.14793,0.86194 -0.2618,1.58055 -0.25305,1.59691 0.009,0.0164 0.40176,0.25012 0.87336,0.51947 l 0.85746,0.48972 0.0229,-0.50889 c 0.0126,-0.27989 0.0412,-1.76268 0.0635,-3.29511 z m 1.22484,3.60488 c 0.20694,-0.12209 0.59018,-0.34113 0.85164,-0.48675 0.26145,-0.14562 0.47554,-0.29164 0.47574,-0.32447 2e-4,-0.0329 -0.11948,-0.75793 -0.26595,-1.61132 -0.55351,-3.22482 -0.89072,-5.17747 -0.89618,-5.18939 -0.003,-0.007 -0.1708,0.0823 -0.37265,0.1979 l -0.367,0.21026 0.0176,0.4399 c 0.01,0.24195 0.0338,1.58796 0.0536,2.99115 0.0405,2.86228 0.0699,3.9947 0.10388,3.9947 0.0127,0 0.19237,-0.0999 0.39931,-0.22198 z m -1.1173,-10.28364 c 0.0192,-0.99619 0.029,-1.82249 0.0217,-1.83621 -0.007,-0.0137 -0.14513,0.73669 -0.30621,1.66759 -0.16108,0.93089 -0.2793,1.71668 -0.26271,1.74619 0.0448,0.0797 0.49567,0.32717 0.50459,0.27693 0.004,-0.0238 0.0234,-0.85831 0.0427,-1.8545 z m 1.06529,1.56024 c 0.0117,-0.0218 -0.11042,-0.80059 -0.27134,-1.73055 -0.16091,-0.92997 -0.29862,-1.67955 -0.30601,-1.66573 -0.007,0.0138 10e-4,0.73437 0.0193,1.60123 0.018,0.86686 0.0332,1.70126 0.0338,1.85423 l 9.7e-4,0.27812 0.25099,-0.14879 c 0.13804,-0.0818 0.26054,-0.16667 0.27222,-0.18851 z"
       style="fill:#000000;stroke:#ca0000;stroke-opacity:1"
       inkscape:connector-curvature="0" />
    <path
       id="path2938-1-2"
       d="m -42.011169,778.61051 c -0.0131,-0.008 -0.0291,-0.0245 -0.0357,-0.0368 -0.007,-0.0123 -0.0314,-0.0378 -0.0552,-0.0567 -0.0238,-0.0189 -0.054,-0.0569 -0.0671,-0.0844 -0.013,-0.0275 -0.0521,-0.10937 -0.0868,-0.18193 -0.0812,-0.16978 -0.2308,-0.54223 -0.27077,-0.67419 -0.0171,-0.0564 -0.0341,-0.10919 -0.0379,-0.11726 -0.0172,-0.0371 -0.10742,-0.35749 -0.15391,-0.54678 -0.0366,-0.14901 -0.0569,-0.20546 -0.0703,-0.1951 -0.0159,0.0124 -0.0161,0.01 -10e-4,-0.0156 0.0146,-0.0255 0.0102,-0.0658 -0.0281,-0.25925 -0.025,-0.126 -0.0498,-0.25548 -0.0553,-0.28773 -0.0448,-0.26569 -0.0729,-0.48062 -0.094,-0.71816 -0.0136,-0.15317 -0.0305,-0.33783 -0.0376,-0.41039 -0.0212,-0.21576 -0.0252,-0.366 -0.0265,-0.98198 -9.7e-4,-0.49941 0.003,-0.64272 0.027,-0.96734 0.0288,-0.38757 0.10547,-0.99287 0.16847,-1.32889 0.0192,-0.10212 0.0313,-0.1998 0.0269,-0.21705 -0.005,-0.0187 -0.002,-0.0228 0.006,-0.0102 0.009,0.0136 0.0234,-0.0294 0.0406,-0.12082 0.0331,-0.17599 0.15027,-0.61318 0.19856,-0.74063 0.0198,-0.0522 0.036,-0.10739 0.036,-0.12266 0,-0.0465 0.26236,-0.67651 0.34425,-0.82668 0.10339,-0.18961 0.13386,-0.2251 0.21905,-0.25512 0.23227,-0.0819 0.41757,0.21008 0.48486,0.76402 0.0228,0.18747 0.007,0.52348 -0.0337,0.73228 -0.0358,0.18235 -0.0582,0.24373 -0.17636,0.48404 -0.0994,0.20212 -0.1486,0.32296 -0.1486,0.36499 0,0.017 -0.005,0.0309 -0.0117,0.0309 -0.006,0 -0.0357,0.0824 -0.0649,0.18321 -0.0292,0.10076 -0.0578,0.19673 -0.0635,0.21326 -0.0329,0.0958 -0.13624,0.68545 -0.16174,0.92262 -0.0499,0.46389 -0.0604,0.83805 -0.0367,1.31181 0.0111,0.22166 0.0269,0.44258 0.0352,0.49095 0.008,0.0484 0.022,0.14729 0.0305,0.21985 0.009,0.0725 0.036,0.24033 0.0609,0.37286 0.0364,0.19311 0.0495,0.23768 0.0662,0.22441 0.0161,-0.0128 0.0172,-0.01 0.004,0.0123 -0.0352,0.0619 0.0959,0.44731 0.36389,1.06967 0.0943,0.21892 0.11592,0.35424 0.11603,0.72542 0,0.24223 -0.005,0.33695 -0.0231,0.4397 -0.0247,0.13952 -0.10347,0.37413 -0.14309,0.42622 -0.0132,0.0173 -0.0346,0.0459 -0.0477,0.0637 -0.0805,0.10937 -0.21194,0.15513 -0.2972,0.10345 z"
       style="fill:#000000;stroke:#ca0000;stroke-opacity:1"
       inkscape:connector-curvature="0" />
    <path
       id="path2986-7-4"
       d="m -33.704369,784.15816 c 0.0634,-0.0484 0.12215,-0.12314 0.1333,-0.16967 0.005,-0.0223 0.0377,-0.0873 0.0719,-0.14438 0.0342,-0.0571 0.0801,-0.14407 0.10195,-0.19328 0.0219,-0.0492 0.0662,-0.14777 0.0986,-0.21905 0.1801,-0.39638 0.44949,-1.09497 0.56219,-1.45787 0.0387,-0.12473 0.0774,-0.23844 0.086,-0.25269 0.009,-0.0143 0.0156,-0.0398 0.0156,-0.0567 0,-0.0169 0.01,-0.0578 0.0218,-0.0907 0.0485,-0.13358 0.12748,-0.4152 0.12748,-0.45465 0,-0.0181 0.007,-0.0446 0.016,-0.0589 0.009,-0.0143 0.0521,-0.17182 0.0964,-0.35017 0.10637,-0.42874 0.11034,-0.44531 0.12004,-0.50187 0.004,-0.0267 0.0115,-0.0559 0.0155,-0.0648 0.004,-0.009 0.0347,-0.1547 0.0684,-0.32398 0.0337,-0.16927 0.0687,-0.34422 0.0777,-0.38876 0.009,-0.0445 0.0164,-0.0992 0.0164,-0.12149 6e-5,-0.0223 0.006,-0.0405 0.0125,-0.0405 0.007,0 0.0124,-0.0153 0.0124,-0.034 0,-0.0187 0.0116,-0.0952 0.0257,-0.17009 0.0141,-0.0749 0.0536,-0.31836 0.0878,-0.54108 0.0341,-0.22273 0.067,-0.43412 0.073,-0.46976 0.006,-0.0357 0.0169,-0.11582 0.0242,-0.17818 0.043,-0.36557 0.065,-0.54194 0.0748,-0.59935 0.0201,-0.11851 0.0865,-0.93078 0.12584,-1.53885 0.0836,-1.2933 0.0756,-2.97373 -0.0204,-4.29262 -0.0513,-0.70421 -0.14415,-1.60467 -0.20384,-1.97622 -0.006,-0.0357 -0.0281,-0.18871 -0.0496,-0.34017 -0.0216,-0.15145 -0.0439,-0.29816 -0.0497,-0.32601 -0.006,-0.0278 -0.0275,-0.16159 -0.0483,-0.29719 -0.0208,-0.1356 -0.0512,-0.30234 -0.0674,-0.37052 -0.0162,-0.0682 -0.0372,-0.175 -0.0467,-0.23736 -0.009,-0.0624 -0.0265,-0.14984 -0.0378,-0.19439 -0.0113,-0.0445 -0.0526,-0.22357 -0.0917,-0.39785 -0.039,-0.17427 -0.0958,-0.41131 -0.12615,-0.52677 -0.0303,-0.11544 -0.0552,-0.22208 -0.0552,-0.23696 0,-0.0149 -0.0114,-0.0539 -0.0253,-0.0867 -0.0139,-0.0328 -0.0226,-0.0781 -0.0193,-0.10056 0.004,-0.0253 -9.7e-4,-0.034 -0.012,-0.0229 -0.0103,0.0102 -0.0181,-0.001 -0.0182,-0.0259 -7e-5,-0.0242 -0.0155,-0.09 -0.0342,-0.14634 -0.0187,-0.0563 -0.0452,-0.14286 -0.0589,-0.19233 -0.0137,-0.0495 -0.0382,-0.12732 -0.0544,-0.173 -0.0162,-0.0457 -0.0518,-0.16097 -0.079,-0.25622 -0.099,-0.34673 -0.57793,-1.56006 -0.61583,-1.56006 -0.009,0 -0.0156,-0.0125 -0.0156,-0.0279 0,-0.0315 -0.15141,-0.33715 -0.23629,-0.47696 -0.0522,-0.086 -0.0647,-0.0922 -0.18655,-0.0928 -0.14161,-5.2e-4 -0.20302,0.0423 -0.28065,0.19657 -0.0236,0.047 -0.0481,0.0723 -0.0565,0.0587 -0.01,-0.0157 -0.0116,-0.0102 -0.005,0.0159 0.006,0.0239 -0.006,0.0906 -0.0297,0.16679 -0.059,0.19114 -0.0783,0.36172 -0.0786,0.69427 -2.1e-4,0.20682 0.006,0.33395 0.0221,0.43736 0.0265,0.17238 0.12411,0.48595 0.15127,0.48595 0.0121,0 0.0163,0.0183 0.0116,0.0503 -0.004,0.0286 -0.002,0.0418 0.005,0.0306 0.0117,-0.0189 0.0914,0.12526 0.14315,0.25924 0.0138,0.0357 0.0455,0.10476 0.0705,0.1536 0.0705,0.13761 0.35843,0.89484 0.42238,1.1108 0.0315,0.10641 0.0692,0.22124 0.0837,0.25519 0.0145,0.034 0.0264,0.0781 0.0264,0.0981 0,0.02 0.0117,0.0624 0.0259,0.0942 0.0142,0.0318 0.0229,0.078 0.0193,0.10274 -0.004,0.0266 -9.7e-4,0.0388 0.009,0.0297 0.008,-0.008 0.0258,0.0325 0.0388,0.0907 0.013,0.0583 0.0311,0.11759 0.0401,0.13184 0.009,0.0142 0.0165,0.0405 0.0165,0.0583 0,0.0178 0.0232,0.12277 0.0515,0.23327 0.0283,0.1105 0.0655,0.26651 0.0827,0.34669 0.0172,0.0802 0.0348,0.15308 0.0392,0.16198 0.0104,0.0212 0.15309,0.76075 0.17508,0.90712 0.009,0.0624 0.0202,0.12068 0.024,0.12959 0.009,0.0202 0.031,0.17207 0.0715,0.48596 0.0173,0.13363 0.036,0.27213 0.0417,0.30777 0.006,0.0356 0.0223,0.17413 0.0371,0.30777 0.0147,0.13364 0.0341,0.30129 0.0429,0.37256 0.0228,0.18319 0.0768,0.93371 0.10003,1.39167 0.0259,0.51055 0.0355,1.43889 0.0192,1.86425 -0.007,0.18709 -0.0157,0.42168 -0.019,0.52131 -0.003,0.0996 -0.015,0.31831 -0.0261,0.48596 -0.0111,0.16764 -0.0282,0.42854 -0.0382,0.57978 -0.01,0.15124 -0.0235,0.28901 -0.0301,0.30615 -0.007,0.0172 -0.012,0.055 -0.012,0.0841 0,0.0292 -0.0105,0.1392 -0.0234,0.2446 -0.0129,0.1054 -0.0308,0.26088 -0.04,0.34552 -0.009,0.0846 -0.021,0.15389 -0.0264,0.15389 -0.005,0 -0.01,0.0258 -0.01,0.0574 0,0.15588 -0.22557,1.46846 -0.29079,1.69201 -0.0126,0.0433 -0.0328,0.13454 -0.0752,0.34016 -0.007,0.0357 -0.0162,0.0721 -0.0196,0.081 -0.006,0.0154 -0.0569,0.2095 -0.14578,0.55512 -0.0221,0.0858 -0.05,0.1829 -0.0622,0.21579 -0.0269,0.0729 -0.093,0.29052 -0.10663,0.35117 -0.005,0.0243 -0.0187,0.0442 -0.0293,0.0442 -0.0121,0 -0.0167,0.0182 -0.0122,0.0486 0.006,0.0441 -0.006,0.0639 -0.0334,0.0517 -0.006,-0.003 -0.007,0.0102 -0.002,0.0281 0.0117,0.0493 -0.13606,0.45912 -0.30416,0.84352 -0.0506,0.11581 -0.10525,0.2447 -0.12134,0.28639 -0.0161,0.0417 -0.0371,0.0679 -0.0467,0.0584 -0.0102,-0.0103 -0.0152,-10e-4 -0.0119,0.0214 0.003,0.0214 -0.027,0.10047 -0.0667,0.17579 -0.10944,0.20744 -0.1682,0.36579 -0.20186,0.54399 -0.0268,0.14182 -0.0305,0.20487 -0.0305,0.52001 0,0.31727 0.003,0.37704 0.0308,0.51836 0.0418,0.21618 0.11788,0.42212 0.193,0.52218 0.0499,0.0665 0.0842,0.0851 0.17411,0.0942 0.0616,0.006 0.13151,-0.004 0.15546,-0.0218 z"
       style="fill:#000000;stroke:#ca0000;stroke-opacity:1"
       inkscape:connector-curvature="0" />
    <path
       id="path2938-4-5"
       d="m -35.616139,781.18999 c 0.0148,-0.0123 0.0331,-0.038 0.0405,-0.0571 0.007,-0.0191 0.0356,-0.0588 0.0627,-0.0881 0.0271,-0.0294 0.0613,-0.0884 0.0762,-0.13112 0.0148,-0.0427 0.0592,-0.16986 0.0985,-0.28253 0.0922,-0.26368 0.26188,-0.84211 0.30724,-1.04705 0.0194,-0.0876 0.0387,-0.16957 0.043,-0.18209 0.0195,-0.0577 0.12189,-0.5552 0.17464,-0.84917 0.0416,-0.23141 0.0646,-0.31908 0.0798,-0.30299 0.0181,0.0192 0.0183,0.0155 10e-4,-0.0242 -0.0165,-0.0396 -0.0116,-0.1022 0.0319,-0.40263 0.0283,-0.19568 0.0566,-0.39676 0.0627,-0.44684 0.0508,-0.41263 0.0827,-0.74642 0.10663,-1.11533 0.0154,-0.23786 0.0346,-0.52466 0.0427,-0.63733 0.024,-0.33509 0.0286,-0.56841 0.0301,-1.52504 10e-4,-0.7756 -0.003,-0.99816 -0.0307,-1.50229 -0.0326,-0.6019 -0.11967,-1.54195 -0.19116,-2.0638 -0.0217,-0.1586 -0.0355,-0.31029 -0.0306,-0.33708 0.005,-0.0291 0.002,-0.0354 -0.007,-0.0158 -0.0101,0.0212 -0.0266,-0.0457 -0.0461,-0.18763 -0.0375,-0.27332 -0.17051,-0.95227 -0.2253,-1.15021 -0.0224,-0.0811 -0.0408,-0.16678 -0.0408,-0.1905 0,-0.0722 -0.2977,-1.05063 -0.39062,-1.28385 -0.11731,-0.29446 -0.15189,-0.34957 -0.24854,-0.39621 -0.26357,-0.12717 -0.47381,0.32625 -0.55017,1.18653 -0.0258,0.29116 -0.008,0.81299 0.0382,1.13725 0.0406,0.2832 0.066,0.37853 0.20012,0.75173 0.11279,0.31391 0.16861,0.50156 0.16861,0.56684 0,0.0264 0.006,0.048 0.0133,0.048 0.007,0 0.0405,0.12803 0.0737,0.28452 0.0332,0.15649 0.0656,0.30553 0.072,0.3312 0.0373,0.14879 0.15459,1.06451 0.18354,1.43284 0.0566,0.72044 0.0685,1.30151 0.0416,2.03727 -0.0126,0.34423 -0.0305,0.68734 -0.0399,0.76245 -0.009,0.0751 -0.025,0.22876 -0.0347,0.34143 -0.01,0.11267 -0.0408,0.37325 -0.0691,0.57907 -0.0412,0.2999 -0.0562,0.36912 -0.0752,0.34852 -0.0183,-0.0199 -0.0194,-0.0156 -0.005,0.019 0.0399,0.0961 -0.10882,0.69468 -0.41291,1.66122 -0.10696,0.33999 -0.13152,0.55015 -0.13164,1.1266 0,0.37618 0.006,0.52329 0.0262,0.68286 0.028,0.21667 0.11742,0.58103 0.16237,0.66192 0.0149,0.0268 0.0393,0.0714 0.0541,0.099 0.0913,0.16985 0.24049,0.24091 0.33723,0.16065 z"
       style="fill:#000000;stroke:#ca0000;stroke-opacity:1"
       inkscape:connector-curvature="0" />
    <path
       id="path2938-1-0-5"
       d="m -37.858459,778.58175 c 0.0131,-0.008 0.0291,-0.0245 0.0357,-0.0368 0.007,-0.0123 0.0314,-0.0378 0.0553,-0.0567 0.0239,-0.0189 0.0541,-0.0569 0.0671,-0.0844 0.013,-0.0275 0.0521,-0.10938 0.0869,-0.18193 0.0812,-0.16978 0.23079,-0.54224 0.27076,-0.6742 0.0171,-0.0564 0.0341,-0.10918 0.0379,-0.11725 0.0173,-0.0371 0.10743,-0.35749 0.15392,-0.54678 0.0366,-0.14901 0.0569,-0.20546 0.0703,-0.1951 0.0159,0.0124 0.0161,0.01 10e-4,-0.0156 -0.0146,-0.0255 -0.0102,-0.0658 0.0281,-0.25926 0.025,-0.12599 0.0499,-0.25547 0.0553,-0.28771 0.0448,-0.2657 0.0729,-0.48064 0.094,-0.71817 0.0136,-0.15317 0.0305,-0.33784 0.0376,-0.41038 0.0212,-0.21578 0.0252,-0.36601 0.0265,-0.98199 9.7e-4,-0.49941 -0.003,-0.64273 -0.0271,-0.96734 -0.0287,-0.38757 -0.10547,-0.99288 -0.16848,-1.32889 -0.0191,-0.10213 -0.0313,-0.1998 -0.0269,-0.21705 0.005,-0.0187 0.002,-0.0228 -0.006,-0.0102 -0.009,0.0136 -0.0234,-0.0294 -0.0406,-0.12081 -0.0331,-0.176 -0.15028,-0.61318 -0.19856,-0.74064 -0.0198,-0.0522 -0.036,-0.10739 -0.036,-0.12266 0,-0.0465 -0.26236,-0.67651 -0.34425,-0.82668 -0.1034,-0.18961 -0.13387,-0.22509 -0.21905,-0.25512 -0.23228,-0.0819 -0.41757,0.21008 -0.48487,0.76402 -0.0228,0.18747 -0.007,0.52348 0.0337,0.73228 0.0358,0.18235 0.0582,0.24373 0.17637,0.48404 0.0994,0.20213 0.1486,0.32295 0.1486,0.36499 0,0.017 0.005,0.0309 0.0117,0.0309 0.007,0 0.0357,0.0824 0.0649,0.1832 0.0292,0.10077 0.0578,0.19673 0.0635,0.21327 0.0329,0.0958 0.13623,0.68544 0.16174,0.92261 0.0499,0.4639 0.0604,0.83805 0.0366,1.31181 -0.0111,0.22166 -0.027,0.44259 -0.0352,0.49095 -0.008,0.0484 -0.022,0.1473 -0.0305,0.21985 -0.009,0.0725 -0.036,0.24034 -0.0609,0.37287 -0.0364,0.19311 -0.0495,0.23768 -0.0662,0.22441 -0.0161,-0.0128 -0.0171,-0.01 -0.004,0.0123 0.0352,0.0619 -0.0959,0.44731 -0.36388,1.06967 -0.0943,0.21892 -0.11592,0.35424 -0.11603,0.72542 0,0.24223 0.005,0.33695 0.0231,0.4397 0.0247,0.13952 0.10347,0.37413 0.14309,0.42622 0.0132,0.0173 0.0346,0.046 0.0477,0.0637 0.0805,0.10937 0.21194,0.15513 0.2972,0.10345 z"
       style="fill:#000000;stroke:#ca0000;stroke-opacity:1"
       inkscape:connector-curvature="0" />
    <path
       id="path2986-1"
       d="m -180.6837,980.46498 c -0.0634,-0.0484 -0.12214,-0.12314 -0.13329,-0.16967 -0.005,-0.0223 -0.0377,-0.0873 -0.0719,-0.14438 -0.0342,-0.0571 -0.0801,-0.14407 -0.10194,-0.19328 -0.0219,-0.0492 -0.0662,-0.14777 -0.0986,-0.21904 -0.1801,-0.39638 -0.44949,-1.09498 -0.56218,-1.45787 -0.0387,-0.12474 -0.0774,-0.23844 -0.086,-0.2527 -0.009,-0.0143 -0.0156,-0.0398 -0.0156,-0.0567 0,-0.017 -0.01,-0.0578 -0.0218,-0.0907 -0.0485,-0.13358 -0.12747,-0.4152 -0.12747,-0.45465 0,-0.0181 -0.007,-0.0446 -0.0159,-0.0589 -0.009,-0.0143 -0.0521,-0.17182 -0.0964,-0.35017 -0.10637,-0.42874 -0.11033,-0.44531 -0.12004,-0.50186 -0.004,-0.0267 -0.0115,-0.0559 -0.0155,-0.0648 -0.004,-0.009 -0.0347,-0.1547 -0.0684,-0.32397 -0.0337,-0.16928 -0.0687,-0.34422 -0.0777,-0.38877 -0.009,-0.0445 -0.0164,-0.0992 -0.0164,-0.12149 -5e-5,-0.0223 -0.006,-0.0405 -0.0125,-0.0405 -0.007,0 -0.0125,-0.0153 -0.0125,-0.034 0,-0.0187 -0.0116,-0.0952 -0.0257,-0.17009 -0.0141,-0.0749 -0.0536,-0.31835 -0.0878,-0.54108 -0.0341,-0.22273 -0.067,-0.43412 -0.073,-0.46976 -0.006,-0.0357 -0.0169,-0.11582 -0.0242,-0.17818 -0.043,-0.36557 -0.065,-0.54194 -0.0748,-0.59935 -0.0201,-0.11851 -0.0865,-0.93078 -0.12583,-1.53885 -0.0836,-1.2933 -0.0756,-2.97373 0.0204,-4.29262 0.0513,-0.70421 0.14414,-1.60467 0.20384,-1.97622 0.006,-0.0357 0.0281,-0.18871 0.0496,-0.34017 0.0216,-0.15145 0.0439,-0.29816 0.0497,-0.32601 0.006,-0.0278 0.0275,-0.16159 0.0483,-0.29719 0.0208,-0.1356 0.0512,-0.30234 0.0674,-0.37052 0.0162,-0.0682 0.0372,-0.175 0.0467,-0.23736 0.009,-0.0624 0.0265,-0.14984 0.0379,-0.19439 0.0113,-0.0445 0.0526,-0.22357 0.0917,-0.39785 0.039,-0.17427 0.0958,-0.41131 0.12615,-0.52676 0.0303,-0.11545 0.0552,-0.22209 0.0552,-0.23697 0,-0.0149 0.0114,-0.0539 0.0253,-0.0867 0.0139,-0.0328 0.0226,-0.0781 0.0193,-0.10056 -0.004,-0.0253 9.7e-4,-0.034 0.012,-0.0229 0.0102,0.0103 0.0181,-0.001 0.0182,-0.0259 7e-5,-0.0242 0.0155,-0.09 0.0342,-0.14634 0.0187,-0.0563 0.0452,-0.14286 0.0589,-0.19233 0.0137,-0.0495 0.0382,-0.12733 0.0544,-0.173 0.0162,-0.0457 0.0518,-0.16097 0.079,-0.25622 0.099,-0.34673 0.57793,-1.56006 0.61582,-1.56006 0.009,0 0.0156,-0.0126 0.0156,-0.0279 0,-0.0315 0.15141,-0.33716 0.23629,-0.47696 0.0522,-0.086 0.0647,-0.0922 0.18655,-0.0928 0.1416,-5.3e-4 0.20301,0.0423 0.28065,0.19657 0.0236,0.047 0.0481,0.0723 0.0565,0.0587 0.01,-0.0157 0.0116,-0.0102 0.005,0.0159 -0.006,0.0239 0.006,0.0906 0.0297,0.16679 0.059,0.19114 0.0783,0.36172 0.0786,0.69426 2e-4,0.20682 -0.006,0.33395 -0.0221,0.43736 -0.0265,0.17239 -0.12411,0.48596 -0.15126,0.48596 -0.0121,0 -0.0163,0.0183 -0.0116,0.0503 0.004,0.0286 0.002,0.0418 -0.005,0.0306 -0.0117,-0.0189 -0.0914,0.12525 -0.14316,0.25924 -0.0138,0.0357 -0.0455,0.10476 -0.0705,0.1536 -0.0705,0.13761 -0.35842,0.89484 -0.42237,1.11079 -0.0315,0.10641 -0.0692,0.22124 -0.0837,0.25519 -0.0145,0.034 -0.0264,0.0781 -0.0264,0.0981 0,0.02 -0.0117,0.0624 -0.0259,0.0942 -0.0143,0.0318 -0.0229,0.078 -0.0193,0.10274 0.004,0.0266 4.1e-4,0.0388 -0.009,0.0297 -0.008,-0.008 -0.0258,0.0325 -0.0388,0.0907 -0.013,0.0583 -0.0311,0.11759 -0.0401,0.13184 -0.009,0.0143 -0.0165,0.0405 -0.0165,0.0583 0,0.0178 -0.0232,0.12277 -0.0515,0.23327 -0.0283,0.1105 -0.0655,0.26651 -0.0827,0.34669 -0.0172,0.0802 -0.0348,0.15308 -0.0391,0.16199 -0.0104,0.0212 -0.15309,0.76074 -0.17508,0.90711 -0.009,0.0624 -0.0202,0.12068 -0.024,0.12959 -0.009,0.0202 -0.031,0.17207 -0.0715,0.48596 -0.0172,0.13364 -0.036,0.27213 -0.0417,0.30777 -0.006,0.0357 -0.0223,0.17413 -0.0371,0.30777 -0.0147,0.13364 -0.0341,0.30129 -0.043,0.37256 -0.0228,0.18319 -0.0768,0.93371 -0.10004,1.39167 -0.0259,0.51055 -0.0355,1.43889 -0.0192,1.86425 0.007,0.18709 0.0157,0.42169 0.019,0.52131 0.003,0.0996 0.015,0.31831 0.0261,0.48596 0.0111,0.16764 0.0282,0.42854 0.0381,0.57978 0.01,0.15124 0.0235,0.28901 0.0301,0.30615 0.007,0.0172 0.012,0.055 0.012,0.0841 0,0.0292 0.0105,0.13921 0.0234,0.2446 0.0128,0.1054 0.0308,0.26089 0.04,0.34552 0.009,0.0846 0.021,0.15389 0.0264,0.15389 0.005,0 0.01,0.0258 0.01,0.0574 0,0.15588 0.22559,1.46846 0.29079,1.69201 0.0127,0.0433 0.0328,0.13454 0.0752,0.34017 0.007,0.0357 0.0161,0.0721 0.0196,0.081 0.006,0.0154 0.0569,0.2095 0.14578,0.55512 0.0221,0.0858 0.05,0.1829 0.0622,0.21579 0.0269,0.0729 0.093,0.29052 0.10664,0.35117 0.005,0.0243 0.0187,0.0442 0.0293,0.0442 0.0121,0 0.0167,0.0182 0.0122,0.0486 -0.007,0.0441 0.006,0.0639 0.0334,0.0517 0.006,-0.003 0.007,0.0102 0.002,0.0281 -0.0117,0.0493 0.13606,0.45912 0.30416,0.84352 0.0507,0.11582 0.10525,0.2447 0.12134,0.28639 0.0161,0.0417 0.0371,0.0679 0.0467,0.0584 0.0102,-0.0103 0.0152,-10e-4 0.0119,0.0214 -0.003,0.0213 0.0269,0.10047 0.0667,0.17579 0.10944,0.20743 0.16821,0.36579 0.20187,0.54398 0.0268,0.14182 0.0305,0.20488 0.0305,0.52002 0,0.31727 -0.003,0.37704 -0.0308,0.51835 -0.0417,0.21619 -0.11788,0.42213 -0.193,0.52218 -0.0499,0.0665 -0.0842,0.0851 -0.17412,0.0942 -0.0615,0.006 -0.13151,-0.004 -0.15545,-0.0219 z"
       style="fill:#000000;stroke:#007d00;stroke-opacity:1"
       inkscape:connector-curvature="0" />
    <path
       id="path2938-7"
       d="m -178.77192,977.49682 c -0.0148,-0.0123 -0.0331,-0.038 -0.0405,-0.0571 -0.007,-0.0191 -0.0356,-0.0588 -0.0627,-0.0881 -0.0271,-0.0294 -0.0613,-0.0884 -0.0761,-0.13112 -0.0148,-0.0427 -0.0592,-0.16987 -0.0985,-0.28254 -0.0922,-0.26368 -0.26189,-0.84211 -0.30724,-1.04704 -0.0194,-0.0876 -0.0387,-0.16958 -0.043,-0.1821 -0.0196,-0.0577 -0.12189,-0.5552 -0.17465,-0.84917 -0.0415,-0.23141 -0.0646,-0.31908 -0.0797,-0.30299 -0.0181,0.0192 -0.0183,0.0155 -10e-4,-0.0242 0.0165,-0.0396 0.0116,-0.1022 -0.0319,-0.40262 -0.0283,-0.19569 -0.0566,-0.39677 -0.0627,-0.44685 -0.0508,-0.41263 -0.0827,-0.74642 -0.10662,-1.11533 -0.0154,-0.23786 -0.0346,-0.52466 -0.0427,-0.63733 -0.024,-0.33509 -0.0286,-0.56841 -0.03,-1.52504 -0.001,-0.7756 0.003,-0.99816 0.0307,-1.50229 0.0326,-0.6019 0.11967,-1.54195 0.19117,-2.06379 0.0217,-0.15861 0.0355,-0.3103 0.0306,-0.33709 -0.005,-0.029 -0.002,-0.0354 0.007,-0.0158 0.0101,0.0212 0.0266,-0.0457 0.0461,-0.18763 0.0375,-0.27332 0.17051,-0.95227 0.2253,-1.15022 0.0224,-0.0811 0.0408,-0.16677 0.0408,-0.19049 0,-0.0722 0.29769,-1.05063 0.39061,-1.28386 0.11732,-0.29446 0.15189,-0.34957 0.24855,-0.3962 0.26357,-0.12717 0.47381,0.32626 0.55017,1.18653 0.0258,0.29116 0.008,0.81299 -0.0383,1.13725 -0.0406,0.2832 -0.066,0.37853 -0.20011,0.75172 -0.11279,0.31391 -0.16861,0.50157 -0.16861,0.56685 0,0.0264 -0.006,0.048 -0.0133,0.048 -0.007,0 -0.0405,0.12803 -0.0737,0.28452 -0.0332,0.15649 -0.0656,0.30553 -0.072,0.3312 -0.0373,0.14879 -0.15458,1.06451 -0.18353,1.43285 -0.0566,0.72043 -0.0685,1.3015 -0.0416,2.03726 0.0126,0.34424 0.0305,0.68734 0.0399,0.76245 0.009,0.0751 0.025,0.22876 0.0347,0.34143 0.01,0.11267 0.0408,0.37325 0.0691,0.57908 0.0412,0.29989 0.0562,0.36911 0.0752,0.34851 0.0183,-0.0199 0.0194,-0.0156 0.005,0.019 -0.0399,0.0961 0.10882,0.69469 0.4129,1.66122 0.10697,0.34 0.13153,0.55015 0.13166,1.1266 0,0.37617 -0.006,0.52329 -0.0262,0.68285 -0.028,0.21669 -0.11742,0.58104 -0.16238,0.66193 -0.0149,0.0268 -0.0393,0.0714 -0.0541,0.099 -0.0913,0.16985 -0.24049,0.24091 -0.33723,0.16065 z"
       style="fill:#000000;stroke:#007d00;stroke-opacity:1"
       inkscape:connector-curvature="0" />
    <path
       id="path2830-1"
       d="m -174.62481,1038.7823 c -0.0296,-0.034 -0.27827,-0.1843 -0.55255,-0.3348 -0.27428,-0.1505 -0.50527,-0.2859 -0.5133,-0.3009 -0.008,-0.015 0.0193,-2.1534 0.0609,-4.7519 0.0415,-2.5985 0.0705,-4.9482 0.0645,-5.2216 l -0.011,-0.4971 -0.19748,-0.1173 c -0.10861,-0.065 -0.60948,-0.3492 -1.11305,-0.6325 -0.50356,-0.2833 -0.9802,-0.5576 -1.05919,-0.6096 -0.079,-0.052 -0.60411,-0.3545 -1.16691,-0.6722 -0.56282,-0.3177 -1.55648,-0.88 -2.20816,-1.2495 -1.54709,-0.8772 -1.5611,-0.8848 -1.57699,-0.8538 -0.0161,0.032 -1.07859,6.1659 -1.39704,8.0663 -0.0767,0.4575 -0.12653,0.6551 -0.1656,0.6562 -0.0307,10e-4 -0.3103,-0.1276 -0.62123,-0.2854 l -0.56532,-0.2868 -1.5e-4,-0.2106 c -7e-5,-0.1159 0.10369,-0.7654 0.23064,-1.4435 0.12696,-0.6781 0.47552,-2.5471 0.77459,-4.1534 0.29907,-1.6062 0.59799,-3.2075 0.66426,-3.5583 0.11226,-0.5941 0.33999,-1.8146 1.74748,-9.3657 0.87227,-4.6796 1.45909,-7.8495 2.41735,-13.05832 0.29113,-1.58249 1.96783,-10.68188 2.39383,-12.9912 0.19753,-1.07085 0.52062,-2.82315 0.71797,-3.894 0.19735,-1.07085 0.50149,-2.71741 0.67586,-3.65902 0.17437,-0.94161 0.53333,-2.88914 0.79769,-4.32783 l 0.48063,-2.61582 -0.15051,-0.27112 c -0.34389,-0.61943 -0.25689,-1.55174 0.17938,-1.92221 0.1968,-0.16712 0.29681,-0.15964 0.50899,0.0381 0.40589,0.37821 0.47586,1.28877 0.1448,1.88415 l -0.15075,0.27111 0.48064,2.61582 c 0.26435,1.43869 0.62331,3.38622 0.79768,4.32784 0.17437,0.9416 0.47991,2.59572 0.67896,3.6758 0.19906,1.08008 0.52215,2.83238 0.71798,3.894 0.42546,2.30648 2.10223,11.40628 2.39072,12.97441 0.93504,5.08249 1.99117,10.78629 2.39928,12.95759 0.12839,0.6831 0.3707,1.9823 0.53846,2.8869 0.16776,0.9047 0.53925,2.8987 0.82555,4.4311 0.28628,1.5325 0.76556,4.1005 1.06504,5.7068 0.29949,1.6062 0.6484,3.4752 0.77535,4.1533 0.12695,0.6781 0.23074,1.3276 0.23065,1.4435 l -1.6e-4,0.2106 -0.56532,0.2869 c -0.31093,0.1577 -0.59048,0.2861 -0.62123,0.2853 -0.0391,-10e-4 -0.0889,-0.1987 -0.1656,-0.6561 -0.23375,-1.395 -1.37957,-8.0319 -1.39046,-8.054 -0.004,-0.01 -0.24056,0.1173 -0.52601,0.2781 -1.02084,0.5752 -3.30927,1.8759 -4.79167,2.7236 -0.82941,0.4743 -1.62515,0.9264 -1.76832,1.0047 l -0.26031,0.1425 0,0.6385 c 0,0.3513 0.0331,2.695 0.0736,5.2083 0.0405,2.5133 0.0673,4.5815 0.0596,4.5959 -0.0251,0.047 -1.08151,0.6404 -1.19233,0.6698 -0.0592,0.016 -0.13195,0 -0.16157,-0.033 z m -0.82972,-16.0874 c 0.0531,-3.5901 0.10616,-6.8388 0.1273,-7.798 l 0.0165,-0.7485 -0.29435,-0.1694 c -0.1619,-0.093 -0.99719,-0.5675 -1.85622,-1.054 -0.85903,-0.4864 -1.94964,-1.1054 -2.42358,-1.3754 -0.47395,-0.2701 -0.86425,-0.4862 -0.86735,-0.4803 -0.003,0.01 -0.17781,1.0077 -0.38826,2.2263 -0.21045,1.2185 -0.53428,3.0917 -0.71962,4.1625 -0.49056,2.8344 -0.69942,4.0847 -0.68637,4.1092 0.0117,0.022 1.242,0.7314 3.91827,2.2599 0.80966,0.4624 1.83564,1.0497 2.27997,1.3052 0.44432,0.2554 0.81779,0.4459 0.82993,0.4233 0.0121,-0.023 0.0409,-1.3099 0.0638,-2.8608 z m 3.15605,2.2873 c 0.60643,-0.3483 1.77312,-1.0149 2.59265,-1.4815 2.40525,-1.3693 3.2477,-1.8598 3.27571,-1.9071 0.0273,-0.046 -0.0986,-0.8209 -0.67774,-4.1691 -0.94243,-5.4485 -1.09516,-6.3109 -1.11763,-6.3109 -0.0224,0 -0.66768,0.3637 -4.15526,2.3424 l -1.25667,0.713 0.001,0.3018 c 0.003,0.6664 0.0566,4.0246 0.0709,4.4644 0.008,0.2584 0.0346,1.8672 0.0582,3.5751 0.0236,1.7078 0.057,3.1051 0.0743,3.1051 0.0173,0 0.52763,-0.2849 1.13405,-0.6332 z m -0.005,-13.6602 c 2.72637,-1.5501 3.69394,-2.1116 3.72424,-2.1612 0.0333,-0.054 -0.0216,-0.3886 -0.85808,-5.2309 -0.29024,-1.6802 -0.55242,-3.2134 -0.58261,-3.4073 -0.0302,-0.1939 -0.0654,-0.3525 -0.0782,-0.3525 -0.0128,0 -0.23275,0.1188 -0.48869,0.264 -0.25594,0.1452 -1.0874,0.6163 -1.84768,1.047 -0.7603,0.4306 -1.38769,0.7926 -1.39423,0.8044 -0.007,0.012 0.0132,1.4819 0.044,3.2667 0.0307,1.7848 0.0664,3.9702 0.0792,4.8564 0.0128,0.8863 0.0305,1.6345 0.0393,1.6628 0.009,0.028 0.0294,0.036 0.0458,0.017 0.0164,-0.019 0.60907,-0.3638 1.31702,-0.7663 z m -2.9534,-0.9302 c 0.0133,-0.9139 0.0492,-3.1077 0.0798,-4.8753 0.0306,-1.7675 0.0422,-3.2355 0.0257,-3.2623 -0.0248,-0.04 -3.58687,-2.0751 -3.68912,-2.1073 -0.018,-0.01 -0.0609,0.1558 -0.0953,0.3589 -0.0344,0.2031 -0.29973,1.7439 -0.58968,3.4241 -0.77002,4.4619 -0.88986,5.1737 -0.87522,5.1985 0.0129,0.022 1.24816,0.7402 2.38293,1.3857 0.31596,0.1798 1.04304,0.597 1.61572,0.9272 0.57268,0.3302 1.05919,0.603 1.08113,0.6063 0.0277,0 0.0473,-0.5034 0.064,-1.6558 z m 0.17951,-11.31266 c 0.0416,-2.08244 0.13005,-7.60592 0.1293,-8.07334 l -9.7e-4,-0.46997 -0.99589,-0.55654 c -0.54774,-0.30609 -1.01512,-0.55534 -1.0386,-0.55388 -0.0237,0.002 -0.15709,0.66934 -0.29901,1.49647 -0.28592,1.6664 -0.90056,5.22751 -1.11468,6.45818 -0.0767,0.441 -0.1356,0.80912 -0.13083,0.81803 0.01,0.0187 3.37089,1.96031 3.40558,1.96731 0.0127,0 0.0329,-0.48622 0.0449,-1.08626 z m 2.61943,0.32433 c 0.73366,-0.42166 1.47934,-0.84783 1.65707,-0.94705 0.17773,-0.0992 0.33518,-0.20121 0.34989,-0.22664 0.0147,-0.0255 -0.0368,-0.40743 -0.1145,-0.84889 -0.14065,-0.79927 -0.62666,-3.61601 -1.11445,-6.45901 -0.14097,-0.82161 -0.26744,-1.49331 -0.28105,-1.49269 -0.0479,0.002 -2.0262,1.13414 -2.0456,1.17043 -0.0108,0.0202 0.007,1.72109 0.0402,3.77976 0.0813,5.0879 0.0983,5.79072 0.13943,5.79072 0.0193,0 0.63536,-0.34497 1.36901,-0.76663 z m -2.38557,-14.74221 c 0.0223,-1.53242 0.0443,-2.96664 0.0489,-3.18715 l 0.008,-0.40092 -0.34942,-0.19895 c -0.19218,-0.10942 -0.35925,-0.18056 -0.37127,-0.15808 -0.0204,0.038 -0.23167,1.24478 -0.90069,5.143 -0.14793,0.86194 -0.2618,1.58055 -0.25305,1.59691 0.009,0.0164 0.40176,0.25012 0.87336,0.51947 l 0.85746,0.48972 0.0229,-0.50889 c 0.0126,-0.27989 0.0412,-1.76268 0.0635,-3.29511 z m 1.22484,3.60488 c 0.20694,-0.12209 0.59018,-0.34113 0.85164,-0.48675 0.26145,-0.14562 0.47554,-0.29164 0.47574,-0.32447 2e-4,-0.0329 -0.11948,-0.75793 -0.26595,-1.61132 -0.55351,-3.22482 -0.89072,-5.17747 -0.89618,-5.18939 -0.003,-0.007 -0.1708,0.0823 -0.37265,0.1979 l -0.367,0.21026 0.0176,0.4399 c 0.01,0.24195 0.0338,1.58796 0.0536,2.99115 0.0405,2.86228 0.0699,3.9947 0.10388,3.9947 0.0127,0 0.19237,-0.0999 0.39931,-0.22198 z m -1.1173,-10.28364 c 0.0192,-0.99619 0.029,-1.82249 0.0217,-1.83621 -0.007,-0.0137 -0.14513,0.73669 -0.30621,1.66759 -0.16108,0.93089 -0.2793,1.71668 -0.26271,1.74619 0.0448,0.0797 0.49567,0.32717 0.50459,0.27693 0.004,-0.0238 0.0234,-0.85831 0.0427,-1.8545 z m 1.06529,1.56024 c 0.0117,-0.0218 -0.11042,-0.80059 -0.27134,-1.73055 -0.16091,-0.92997 -0.29862,-1.67955 -0.30601,-1.66573 -0.007,0.0138 0.001,0.73437 0.0193,1.60123 0.018,0.86686 0.0332,1.70126 0.0338,1.85423 l 9.7e-4,0.27812 0.25099,-0.14879 c 0.13804,-0.0818 0.26054,-0.16667 0.27222,-0.18851 z"
       style="fill:#000000;stroke:#007d00;stroke-opacity:1"
       inkscape:connector-curvature="0" />
    <path
       id="path2938-1-1"
       d="m -176.5296,974.88857 c -0.0131,-0.008 -0.0291,-0.0245 -0.0357,-0.0368 -0.007,-0.0123 -0.0314,-0.0378 -0.0552,-0.0567 -0.0238,-0.0189 -0.054,-0.0569 -0.0671,-0.0844 -0.013,-0.0275 -0.0521,-0.10937 -0.0868,-0.18193 -0.0812,-0.16978 -0.2308,-0.54223 -0.27077,-0.67419 -0.0171,-0.0564 -0.0341,-0.10919 -0.0379,-0.11726 -0.0172,-0.0371 -0.10742,-0.35749 -0.15391,-0.54678 -0.0366,-0.14901 -0.0569,-0.20546 -0.0703,-0.1951 -0.0159,0.0124 -0.0161,0.01 -0.001,-0.0156 0.0146,-0.0255 0.0102,-0.0658 -0.0281,-0.25925 -0.025,-0.126 -0.0498,-0.25548 -0.0553,-0.28773 -0.0448,-0.26569 -0.0729,-0.48062 -0.094,-0.71816 -0.0136,-0.15317 -0.0305,-0.33783 -0.0376,-0.41039 -0.0212,-0.21576 -0.0252,-0.366 -0.0265,-0.98198 -9.7e-4,-0.49941 0.003,-0.64272 0.027,-0.96734 0.0288,-0.38757 0.10547,-0.99287 0.16847,-1.32889 0.0192,-0.10212 0.0313,-0.1998 0.0269,-0.21705 -0.005,-0.0187 -0.002,-0.0228 0.006,-0.0102 0.009,0.0136 0.0234,-0.0294 0.0406,-0.12082 0.0331,-0.17599 0.15027,-0.61318 0.19856,-0.74063 0.0198,-0.0522 0.036,-0.10739 0.036,-0.12266 0,-0.0465 0.26236,-0.67651 0.34425,-0.82668 0.10339,-0.18961 0.13386,-0.2251 0.21905,-0.25512 0.23227,-0.0819 0.41757,0.21008 0.48486,0.76402 0.0228,0.18747 0.007,0.52348 -0.0337,0.73228 -0.0358,0.18235 -0.0582,0.24373 -0.17636,0.48404 -0.0994,0.20212 -0.1486,0.32296 -0.1486,0.36499 0,0.017 -0.005,0.0309 -0.0117,0.0309 -0.006,0 -0.0357,0.0824 -0.0649,0.18321 -0.0292,0.10076 -0.0578,0.19673 -0.0635,0.21326 -0.0329,0.0958 -0.13624,0.68545 -0.16174,0.92262 -0.0499,0.46389 -0.0604,0.83805 -0.0367,1.31181 0.0111,0.22166 0.0269,0.44258 0.0352,0.49095 0.008,0.0484 0.022,0.14729 0.0305,0.21985 0.009,0.0725 0.036,0.24033 0.0609,0.37286 0.0364,0.19311 0.0495,0.23768 0.0662,0.22441 0.0161,-0.0128 0.0172,-0.01 0.004,0.0123 -0.0352,0.0619 0.0959,0.44731 0.36389,1.06967 0.0943,0.21892 0.11592,0.35424 0.11603,0.72542 0,0.24223 -0.005,0.33695 -0.0231,0.4397 -0.0247,0.13952 -0.10347,0.37413 -0.14309,0.42622 -0.0132,0.0173 -0.0346,0.0459 -0.0477,0.0637 -0.0805,0.10937 -0.21194,0.15513 -0.2972,0.10345 z"
       style="fill:#000000;stroke:#007d00;stroke-opacity:1"
       inkscape:connector-curvature="0" />
    <path
       id="path2986-7-5"
       d="m -168.2228,980.43622 c 0.0634,-0.0484 0.12215,-0.12314 0.1333,-0.16967 0.005,-0.0223 0.0377,-0.0873 0.0719,-0.14438 0.0342,-0.0571 0.0801,-0.14407 0.10195,-0.19328 0.0219,-0.0492 0.0662,-0.14777 0.0986,-0.21905 0.1801,-0.39638 0.44949,-1.09497 0.56219,-1.45787 0.0387,-0.12473 0.0774,-0.23844 0.086,-0.25269 0.009,-0.0143 0.0156,-0.0398 0.0156,-0.0567 0,-0.0169 0.01,-0.0578 0.0218,-0.0907 0.0485,-0.13358 0.12748,-0.4152 0.12748,-0.45465 0,-0.0181 0.007,-0.0446 0.016,-0.0589 0.009,-0.0143 0.0521,-0.17182 0.0964,-0.35017 0.10637,-0.42874 0.11034,-0.44531 0.12004,-0.50187 0.004,-0.0267 0.0115,-0.0559 0.0155,-0.0648 0.004,-0.009 0.0347,-0.1547 0.0684,-0.32398 0.0337,-0.16927 0.0687,-0.34422 0.0777,-0.38876 0.009,-0.0445 0.0164,-0.0992 0.0164,-0.12149 6e-5,-0.0223 0.006,-0.0405 0.0125,-0.0405 0.007,0 0.0124,-0.0153 0.0124,-0.034 0,-0.0187 0.0116,-0.0952 0.0257,-0.17009 0.0141,-0.0749 0.0536,-0.31836 0.0878,-0.54108 0.0341,-0.22273 0.067,-0.43412 0.073,-0.46976 0.006,-0.0357 0.0169,-0.11582 0.0242,-0.17818 0.043,-0.36557 0.065,-0.54194 0.0748,-0.59935 0.0201,-0.11851 0.0865,-0.93078 0.12584,-1.53885 0.0836,-1.2933 0.0756,-2.97373 -0.0204,-4.29262 -0.0513,-0.70421 -0.14415,-1.60467 -0.20384,-1.97622 -0.006,-0.0357 -0.0281,-0.18871 -0.0496,-0.34017 -0.0216,-0.15145 -0.0439,-0.29816 -0.0497,-0.32601 -0.006,-0.0278 -0.0275,-0.16159 -0.0483,-0.29719 -0.0208,-0.1356 -0.0512,-0.30234 -0.0674,-0.37052 -0.0162,-0.0682 -0.0372,-0.175 -0.0467,-0.23736 -0.009,-0.0624 -0.0265,-0.14984 -0.0378,-0.19439 -0.0113,-0.0445 -0.0526,-0.22357 -0.0917,-0.39785 -0.039,-0.17427 -0.0958,-0.41131 -0.12615,-0.52677 -0.0303,-0.11544 -0.0552,-0.22208 -0.0552,-0.23696 0,-0.0149 -0.0114,-0.0539 -0.0253,-0.0867 -0.0139,-0.0328 -0.0226,-0.0781 -0.0193,-0.10056 0.004,-0.0253 -9.7e-4,-0.034 -0.012,-0.0229 -0.0103,0.0102 -0.0181,-10e-4 -0.0182,-0.0259 -7e-5,-0.0242 -0.0155,-0.09 -0.0342,-0.14634 -0.0187,-0.0563 -0.0452,-0.14286 -0.0589,-0.19233 -0.0137,-0.0495 -0.0382,-0.12732 -0.0544,-0.173 -0.0162,-0.0457 -0.0518,-0.16097 -0.079,-0.25622 -0.099,-0.34673 -0.57793,-1.56006 -0.61583,-1.56006 -0.009,0 -0.0156,-0.0125 -0.0156,-0.0279 0,-0.0315 -0.15141,-0.33715 -0.23629,-0.47696 -0.0522,-0.086 -0.0647,-0.0922 -0.18655,-0.0928 -0.14161,-5.2e-4 -0.20302,0.0423 -0.28065,0.19657 -0.0236,0.047 -0.0481,0.0723 -0.0565,0.0587 -0.01,-0.0157 -0.0116,-0.0102 -0.005,0.0159 0.006,0.0239 -0.006,0.0906 -0.0297,0.16679 -0.059,0.19114 -0.0783,0.36172 -0.0786,0.69427 -2.1e-4,0.20682 0.006,0.33395 0.0221,0.43736 0.0265,0.17238 0.12411,0.48595 0.15127,0.48595 0.0121,0 0.0163,0.0183 0.0116,0.0503 -0.004,0.0286 -0.002,0.0418 0.005,0.0306 0.0117,-0.0189 0.0914,0.12526 0.14315,0.25924 0.0138,0.0357 0.0455,0.10476 0.0705,0.1536 0.0705,0.13761 0.35843,0.89484 0.42238,1.1108 0.0315,0.10641 0.0692,0.22124 0.0837,0.25519 0.0145,0.034 0.0264,0.0781 0.0264,0.0981 0,0.02 0.0117,0.0624 0.0259,0.0942 0.0142,0.0318 0.0229,0.078 0.0193,0.10274 -0.004,0.0266 -9.7e-4,0.0388 0.009,0.0297 0.008,-0.008 0.0258,0.0325 0.0388,0.0907 0.013,0.0583 0.0311,0.11759 0.0401,0.13184 0.009,0.0142 0.0165,0.0405 0.0165,0.0583 0,0.0178 0.0232,0.12277 0.0515,0.23327 0.0283,0.1105 0.0655,0.26651 0.0827,0.34669 0.0172,0.0802 0.0348,0.15308 0.0392,0.16198 0.0104,0.0212 0.15309,0.76075 0.17508,0.90712 0.009,0.0624 0.0202,0.12068 0.024,0.12959 0.009,0.0202 0.031,0.17207 0.0715,0.48596 0.0173,0.13363 0.036,0.27213 0.0417,0.30777 0.006,0.0356 0.0223,0.17413 0.0371,0.30777 0.0147,0.13364 0.0341,0.30129 0.0429,0.37256 0.0228,0.18319 0.0768,0.93371 0.10003,1.39167 0.0259,0.51055 0.0355,1.43889 0.0192,1.86425 -0.007,0.18709 -0.0157,0.42168 -0.019,0.52131 -0.003,0.0996 -0.015,0.31831 -0.0261,0.48596 -0.0111,0.16764 -0.0282,0.42854 -0.0382,0.57978 -0.01,0.15124 -0.0235,0.28901 -0.0301,0.30615 -0.007,0.0172 -0.012,0.055 -0.012,0.0841 0,0.0292 -0.0105,0.1392 -0.0234,0.2446 -0.0129,0.1054 -0.0308,0.26088 -0.04,0.34552 -0.009,0.0846 -0.021,0.15389 -0.0264,0.15389 -0.005,0 -0.01,0.0258 -0.01,0.0574 0,0.15588 -0.22557,1.46846 -0.29079,1.69201 -0.0126,0.0433 -0.0328,0.13454 -0.0752,0.34016 -0.007,0.0357 -0.0162,0.0721 -0.0196,0.081 -0.006,0.0154 -0.0569,0.2095 -0.14578,0.55512 -0.0221,0.0858 -0.05,0.1829 -0.0622,0.21579 -0.0269,0.0729 -0.093,0.29052 -0.10663,0.35117 -0.005,0.0243 -0.0187,0.0442 -0.0293,0.0442 -0.0121,0 -0.0167,0.0182 -0.0122,0.0486 0.006,0.0441 -0.006,0.0639 -0.0334,0.0517 -0.006,-0.003 -0.007,0.0102 -0.002,0.0281 0.0117,0.0493 -0.13606,0.45912 -0.30416,0.84352 -0.0506,0.11581 -0.10525,0.2447 -0.12134,0.28639 -0.0161,0.0417 -0.0371,0.0679 -0.0467,0.0584 -0.0102,-0.0103 -0.0152,-10e-4 -0.0119,0.0214 0.003,0.0214 -0.027,0.10047 -0.0667,0.17579 -0.10944,0.20744 -0.1682,0.36579 -0.20186,0.54399 -0.0268,0.14182 -0.0305,0.20487 -0.0305,0.52001 0,0.31727 0.003,0.37704 0.0308,0.51836 0.0418,0.21618 0.11788,0.42212 0.193,0.52218 0.0499,0.0665 0.0842,0.0851 0.17411,0.0942 0.0616,0.006 0.13151,-0.004 0.15546,-0.0218 z"
       style="fill:#000000;stroke:#007d00;stroke-opacity:1"
       inkscape:connector-curvature="0" />
    <path
       id="path2938-4-2"
       d="m -170.13457,977.46805 c 0.0148,-0.0123 0.0331,-0.038 0.0405,-0.0571 0.007,-0.0191 0.0356,-0.0588 0.0627,-0.0881 0.0271,-0.0294 0.0613,-0.0884 0.0762,-0.13112 0.0148,-0.0427 0.0592,-0.16986 0.0985,-0.28253 0.0922,-0.26368 0.26188,-0.84211 0.30724,-1.04705 0.0194,-0.0876 0.0387,-0.16957 0.043,-0.18209 0.0195,-0.0577 0.12189,-0.5552 0.17464,-0.84917 0.0416,-0.23141 0.0646,-0.31908 0.0798,-0.30299 0.0181,0.0192 0.0183,0.0155 0.001,-0.0242 -0.0165,-0.0396 -0.0116,-0.1022 0.0319,-0.40263 0.0283,-0.19568 0.0566,-0.39676 0.0627,-0.44684 0.0508,-0.41263 0.0827,-0.74642 0.10663,-1.11533 0.0154,-0.23786 0.0346,-0.52466 0.0427,-0.63733 0.024,-0.33509 0.0286,-0.56841 0.0301,-1.52504 0.001,-0.7756 -0.003,-0.99816 -0.0307,-1.50229 -0.0326,-0.6019 -0.11967,-1.54195 -0.19116,-2.0638 -0.0217,-0.1586 -0.0355,-0.31029 -0.0306,-0.33708 0.005,-0.0291 0.002,-0.0354 -0.007,-0.0158 -0.0101,0.0212 -0.0266,-0.0457 -0.0461,-0.18763 -0.0375,-0.27332 -0.17051,-0.95227 -0.2253,-1.15021 -0.0224,-0.0811 -0.0408,-0.16678 -0.0408,-0.1905 0,-0.0722 -0.2977,-1.05063 -0.39062,-1.28385 -0.11731,-0.29446 -0.15189,-0.34957 -0.24854,-0.39621 -0.26357,-0.12717 -0.47381,0.32625 -0.55017,1.18653 -0.0258,0.29116 -0.008,0.81299 0.0382,1.13725 0.0406,0.2832 0.066,0.37853 0.20012,0.75173 0.11279,0.31391 0.16861,0.50156 0.16861,0.56684 0,0.0264 0.006,0.048 0.0133,0.048 0.007,0 0.0405,0.12803 0.0737,0.28452 0.0332,0.15649 0.0656,0.30553 0.072,0.3312 0.0373,0.14879 0.15459,1.06451 0.18354,1.43284 0.0566,0.72044 0.0685,1.30151 0.0416,2.03727 -0.0126,0.34423 -0.0305,0.68734 -0.0399,0.76245 -0.009,0.0751 -0.025,0.22876 -0.0347,0.34143 -0.01,0.11267 -0.0408,0.37325 -0.0691,0.57907 -0.0412,0.2999 -0.0562,0.36912 -0.0752,0.34852 -0.0183,-0.0199 -0.0194,-0.0156 -0.005,0.019 0.0399,0.0961 -0.10882,0.69468 -0.41291,1.66122 -0.10696,0.33999 -0.13152,0.55015 -0.13164,1.1266 0,0.37618 0.006,0.52329 0.0262,0.68286 0.028,0.21667 0.11742,0.58103 0.16237,0.66192 0.0149,0.0268 0.0393,0.0714 0.0541,0.099 0.0913,0.16985 0.24049,0.24091 0.33723,0.16065 z"
       style="fill:#000000;stroke:#007d00;stroke-opacity:1"
       inkscape:connector-curvature="0" />
    <path
       id="path2938-1-0-7"
       d="m -172.37689,974.85981 c 0.0131,-0.008 0.0291,-0.0245 0.0357,-0.0368 0.007,-0.0123 0.0314,-0.0378 0.0553,-0.0567 0.0239,-0.0189 0.0541,-0.0569 0.0671,-0.0844 0.013,-0.0275 0.0521,-0.10938 0.0869,-0.18193 0.0812,-0.16978 0.23079,-0.54224 0.27076,-0.6742 0.0171,-0.0564 0.0341,-0.10918 0.0379,-0.11725 0.0173,-0.0371 0.10743,-0.35749 0.15392,-0.54678 0.0366,-0.14901 0.0569,-0.20546 0.0703,-0.1951 0.0159,0.0124 0.0161,0.01 0.001,-0.0156 -0.0146,-0.0255 -0.0102,-0.0658 0.0281,-0.25926 0.025,-0.12599 0.0499,-0.25547 0.0553,-0.28771 0.0448,-0.2657 0.0729,-0.48064 0.094,-0.71817 0.0136,-0.15317 0.0305,-0.33784 0.0376,-0.41038 0.0212,-0.21578 0.0252,-0.36601 0.0265,-0.98199 9.7e-4,-0.49941 -0.003,-0.64273 -0.0271,-0.96734 -0.0287,-0.38757 -0.10547,-0.99288 -0.16848,-1.32889 -0.0191,-0.10213 -0.0313,-0.1998 -0.0269,-0.21705 0.005,-0.0187 0.002,-0.0228 -0.006,-0.0102 -0.009,0.0136 -0.0234,-0.0294 -0.0406,-0.12081 -0.0331,-0.176 -0.15028,-0.61318 -0.19856,-0.74064 -0.0198,-0.0522 -0.036,-0.10739 -0.036,-0.12266 0,-0.0465 -0.26236,-0.67651 -0.34425,-0.82668 -0.1034,-0.18961 -0.13387,-0.22509 -0.21905,-0.25512 -0.23228,-0.0819 -0.41757,0.21008 -0.48487,0.76402 -0.0228,0.18747 -0.007,0.52348 0.0337,0.73228 0.0358,0.18235 0.0582,0.24373 0.17637,0.48404 0.0994,0.20213 0.1486,0.32295 0.1486,0.36499 0,0.017 0.005,0.0309 0.0117,0.0309 0.007,0 0.0357,0.0824 0.0649,0.1832 0.0292,0.10077 0.0578,0.19673 0.0635,0.21327 0.0329,0.0958 0.13623,0.68544 0.16174,0.92261 0.0499,0.4639 0.0604,0.83805 0.0366,1.31181 -0.0111,0.22166 -0.027,0.44259 -0.0352,0.49095 -0.008,0.0484 -0.022,0.1473 -0.0305,0.21985 -0.009,0.0725 -0.036,0.24034 -0.0609,0.37287 -0.0364,0.19311 -0.0495,0.23768 -0.0662,0.22441 -0.0161,-0.0128 -0.0171,-0.01 -0.004,0.0123 0.0352,0.0619 -0.0959,0.44731 -0.36388,1.06967 -0.0943,0.21892 -0.11592,0.35424 -0.11603,0.72542 0,0.24223 0.005,0.33695 0.0231,0.4397 0.0247,0.13952 0.10347,0.37413 0.14309,0.42622 0.0132,0.0173 0.0346,0.046 0.0477,0.0637 0.0805,0.10937 0.21194,0.15513 0.2972,0.10345 z"
       style="fill:#000000;stroke:#007d00;stroke-opacity:1"
       inkscape:connector-curvature="0" />
    <path
       sodipodi:type="arc"
       id="path3095"
       sodipodi:cx="277.5"
       sodipodi:cy="570.2193"
       sodipodi:rx="182.5"
       sodipodi:ry="183.57143"
       d="M 460,570.2193 C 460,671.603 378.29197,753.79073 277.5,753.79073 176.70803,753.79073 95,671.603 95,570.2193 95,468.8356 176.70803,386.64787 277.5,386.64787 c 100.79197,0 182.5,82.18773 182.5,183.57143 z"
       transform="translate(-594.08574,238.45726)"
       style="fill:#000000;stroke:#000000;stroke-opacity:1;stroke-width:1;stroke-miterlimit:4;stroke-dasharray:4, 1;stroke-dashoffset:0;fill-opacity:0.50980395" />
    <path
       sodipodi:type="arc"
       id="path3095-6"
       sodipodi:cx="277.5"
       sodipodi:cy="570.2193"
       sodipodi:rx="182.5"
       sodipodi:ry="183.57143"
       d="M 460,570.2193 C 460,671.603 378.29197,753.79073 277.5,753.79073 176.70803,753.79073 95,671.603 95,570.2193 95,468.8356 176.70803,386.64787 277.5,386.64787 c 100.79197,0 182.5,82.18773 182.5,183.57143 z"
       transform="translate(-312.30002,241.88586)"
       style="fill:#000000;stroke:#ca0000;stroke-opacity:1;stroke-width:1;stroke-miterlimit:4;stroke-dasharray:4, 1;stroke-dashoffset:0;fill-opacity:0.50980395" />
    <path
       sodipodi:type="arc"
       id="path3095-1"
       sodipodi:cx="277.5"
       sodipodi:cy="570.2193"
       sodipodi:rx="182.5"
       sodipodi:ry="183.57143"
       d="M 460,570.2193 C 460,671.603 378.29197,753.79073 277.5,753.79073 176.70803,753.79073 95,671.603 95,570.2193 95,468.8356 176.70803,386.64787 277.5,386.64787 c 100.79197,0 182.5,82.18773 182.5,183.57143 z"
       transform="translate(-460.30002,421.88586)"
       style="fill:#000000;stroke:#00b000;stroke-opacity:1;stroke-width:1;stroke-miterlimit:4;stroke-dasharray:4, 1;stroke-dashoffset:0;fill-opacity:0.50980395" />
    <path
       id="path9598"
       d="m -422.29797,834.58184 c -0.32156,-0.10316 -0.92863,-0.56114 -1.34903,-1.01773 -1.30208,-1.41415 -1.25988,-0.94843 -1.25888,-13.89039 6.2e-4,-7.6634 0.0563,-11.54645 0.17286,-12.05674 0.25351,-1.10947 1.59456,-2.67448 2.43004,-2.83586 l 0.63947,-0.12353 0.053,-1.84111 c 0.0625,-2.17227 0.27601,-2.63242 1.22132,-2.63242 0.92229,0 1.09045,0.38282 1.09045,2.48246 l 0,1.79421 2.68716,0.0905 c 2.32385,0.0782 2.77285,0.14347 3.32091,0.4825 0.83322,0.51543 1.71903,1.71945 1.92536,2.61702 0.10802,0.46994 0.16557,4.63437 0.16614,12.02301 9.4e-4,12.93596 0.0425,12.47706 -1.2542,13.88531 -0.48012,0.52144 -1.01631,0.90315 -1.45696,1.03718 -0.8644,0.26292 -7.55901,0.25145 -8.38763,-0.0144 z m 9.51073,-18.06417 c 0.19751,-0.2386 0.28086,-7.91561 0.0924,-8.50895 -0.0836,-0.26317 -0.69523,-0.29765 -5.27977,-0.29765 -4.58454,0 -5.19618,0.0345 -5.27978,0.29765 -0.18848,0.59334 -0.10514,8.27035 0.0924,8.50895 0.26748,0.3231 10.10732,0.3231 10.3748,0 z"
       style="fill:#000099;fill-opacity:1"
       inkscape:connector-curvature="0" />
    <path
       id="path9598-2"
       d="m -266.33117,755.20124 c -0.32156,-0.10316 -0.92863,-0.56114 -1.34903,-1.01773 -1.30208,-1.41415 -1.25988,-0.94843 -1.25888,-13.89039 6.2e-4,-7.6634 0.0563,-11.54645 0.17286,-12.05674 0.25351,-1.10947 1.59456,-2.67448 2.43004,-2.83586 l 0.63947,-0.12353 0.053,-1.84111 c 0.0625,-2.17227 0.27601,-2.63242 1.22132,-2.63242 0.92229,0 1.09045,0.38282 1.09045,2.48246 l 0,1.79421 2.68716,0.0905 c 2.32385,0.0782 2.77285,0.14347 3.32091,0.4825 0.83322,0.51543 1.71903,1.71945 1.92536,2.61702 0.10802,0.46994 0.16557,4.63437 0.16614,12.02301 9.4e-4,12.93596 0.0425,12.47706 -1.2542,13.88531 -0.48012,0.52144 -1.01631,0.90315 -1.45696,1.03718 -0.8644,0.26292 -7.55901,0.25145 -8.38763,-0.0144 z m 9.51073,-18.06417 c 0.19751,-0.2386 0.28086,-7.91561 0.0924,-8.50895 -0.0836,-0.26317 -0.69523,-0.29765 -5.27977,-0.29765 -4.58454,0 -5.19618,0.0345 -5.27978,0.29765 -0.18848,0.59334 -0.10514,8.27035 0.0924,8.50895 0.26748,0.3231 10.10732,0.3231 10.3748,0 z"
       style="fill:#000099;fill-opacity:1"
       inkscape:connector-curvature="0" />
    <path
       id="path9598-3"
       d="m -282.47402,911.48695 c -0.32156,-0.10316 -0.92863,-0.56114 -1.34903,-1.01773 -1.30208,-1.41415 -1.25988,-0.94843 -1.25888,-13.89039 6.2e-4,-7.6634 0.0563,-11.54645 0.17286,-12.05674 0.25351,-1.10947 1.59456,-2.67448 2.43004,-2.83586 l 0.63947,-0.12353 0.053,-1.84111 c 0.0625,-2.17227 0.27601,-2.63242 1.22132,-2.63242 0.92229,0 1.09045,0.38282 1.09045,2.48246 l 0,1.79421 2.68716,0.0905 c 2.32385,0.0782 2.77285,0.14347 3.32091,0.4825 0.83322,0.51543 1.71903,1.71945 1.92536,2.61702 0.10802,0.46994 0.16557,4.63437 0.16614,12.02301 9.4e-4,12.93596 0.0425,12.47706 -1.2542,13.88531 -0.48012,0.52144 -1.01631,0.90315 -1.45696,1.03718 -0.8644,0.26292 -7.55901,0.25145 -8.38763,-0.0144 z m 9.51073,-18.06417 c 0.19751,-0.2386 0.28086,-7.91561 0.0924,-8.50895 -0.0836,-0.26317 -0.69523,-0.29765 -5.27977,-0.29765 -4.58454,0 -5.19618,0.0345 -5.27978,0.29765 -0.18848,0.59334 -0.10514,8.27035 0.0924,8.50895 0.26748,0.3231 10.10732,0.3231 10.3748,0 z"
       style="fill:#000099;fill-opacity:1"
       inkscape:connector-curvature="0" />
    <path
       id="path9598-22"
       d="m -125.18831,733.48695 c -0.32156,-0.10316 -0.92863,-0.56114 -1.34903,-1.01773 -1.30208,-1.41415 -1.25988,-0.94843 -1.25888,-13.89039 6.2e-4,-7.6634 0.0563,-11.54645 0.17286,-12.05674 0.25351,-1.10947 1.59456,-2.67448 2.43004,-2.83586 l 0.63947,-0.12353 0.053,-1.84111 c 0.0625,-2.17227 0.27601,-2.63242 1.22132,-2.63242 0.92229,0 1.09045,0.38282 1.09045,2.48246 l 0,1.79421 2.68716,0.0905 c 2.32385,0.0782 2.77285,0.14347 3.32091,0.4825 0.83322,0.51543 1.71903,1.71945 1.92536,2.61702 0.10802,0.46994 0.16557,4.63437 0.16614,12.02301 9.4e-4,12.93596 0.0425,12.47706 -1.2542,13.88531 -0.48012,0.52144 -1.01631,0.90315 -1.45696,1.03718 -0.8644,0.26292 -7.55901,0.25145 -8.38763,-0.0144 z m 9.51073,-18.06417 c 0.19751,-0.2386 0.28086,-7.91561 0.0924,-8.50895 -0.0836,-0.26317 -0.69523,-0.29765 -5.27977,-0.29765 -4.58454,0 -5.19618,0.0345 -5.27978,0.29765 -0.18848,0.59334 -0.10514,8.27035 0.0924,8.50895 0.26748,0.3231 10.10732,0.3231 10.3748,0 z"
       style="fill:#000099;fill-opacity:1"
       inkscape:connector-curvature="0" />
    <path
       id="path9598-1"
       d="m 28.81169,841.48695 c -0.32156,-0.10316 -0.92863,-0.56114 -1.34903,-1.01773 -1.30208,-1.41415 -1.25988,-0.94843 -1.25888,-13.89039 6.2e-4,-7.6634 0.0563,-11.54645 0.17286,-12.05674 0.25351,-1.10947 1.59456,-2.67448 2.43004,-2.83586 l 0.63947,-0.12353 0.053,-1.84111 c 0.0625,-2.17227 0.27601,-2.63242 1.22132,-2.63242 0.92229,0 1.09045,0.38282 1.09045,2.48246 l 0,1.79421 2.68716,0.0905 c 2.32385,0.0782 2.77285,0.14347 3.32091,0.4825 0.83322,0.51543 1.71903,1.71945 1.92536,2.61702 0.10802,0.46994 0.16557,4.63437 0.16614,12.02301 9.4e-4,12.93596 0.0425,12.47706 -1.2542,13.88531 -0.48012,0.52144 -1.01631,0.90315 -1.45696,1.03718 -0.8644,0.26292 -7.55901,0.25145 -8.38763,-0.0144 z m 9.51073,-18.06417 c 0.19751,-0.2386 0.28086,-7.91561 0.0924,-8.50895 -0.0836,-0.26317 -0.69523,-0.29765 -5.27977,-0.29765 -4.58454,0 -5.19618,0.0345 -5.27978,0.29765 -0.18848,0.59334 -0.10514,8.27035 0.0924,8.50895 0.26748,0.3231 10.10732,0.3231 10.3748,0 z"
       style="fill:#000099;fill-opacity:1"
       inkscape:connector-curvature="0" />
    <path
       id="path9598-6"
       d="m -101.18831,877.48695 c -0.32156,-0.10316 -0.92863,-0.56114 -1.34903,-1.01773 -1.30208,-1.41415 -1.25988,-0.94843 -1.25888,-13.89039 6.2e-4,-7.6634 0.0563,-11.54645 0.17286,-12.05674 0.25351,-1.10947 1.59456,-2.67448 2.43004,-2.83586 l 0.63947,-0.12353 0.053,-1.84111 c 0.0625,-2.17227 0.27601,-2.63242 1.22132,-2.63242 0.92229,0 1.09045,0.38282 1.09045,2.48246 l 0,1.79421 2.68716,0.0905 c 2.32385,0.0782 2.77285,0.14347 3.32091,0.4825 0.83322,0.51543 1.71903,1.71945 1.92536,2.61702 0.10802,0.46994 0.16557,4.63437 0.16614,12.02301 9.4e-4,12.93596 0.0425,12.47706 -1.2542,13.88531 -0.48012,0.52144 -1.01631,0.90315 -1.45696,1.03718 -0.8644,0.26292 -7.55901,0.25145 -8.38763,-0.0144 z m 9.51073,-18.06417 c 0.19751,-0.2386 0.28086,-7.91561 0.0924,-8.50895 -0.0836,-0.26317 -0.69523,-0.29765 -5.27977,-0.29765 -4.58454,0 -5.19618,0.0345 -5.27978,0.29765 -0.18848,0.59334 -0.10514,8.27035 0.0924,8.50895 0.26748,0.3231 10.10732,0.3231 10.3748,0 z"
       style="fill:#000099;fill-opacity:1"
       inkscape:connector-curvature="0" />
    <path
       id="path9598-8"
       d="m -281.18831,1043.4869 c -0.32156,-0.1031 -0.92863,-0.5611 -1.34903,-1.0177 -1.30208,-1.4141 -1.25988,-0.9484 -1.25888,-13.8904 6.2e-4,-7.6634 0.0563,-11.5464 0.17286,-12.0567 0.25351,-1.1095 1.59456,-2.6745 2.43004,-2.8359 l 0.63947,-0.1235 0.053,-1.8411 c 0.0625,-2.1723 0.27601,-2.6324 1.22132,-2.6324 0.92229,0 1.09045,0.3828 1.09045,2.4824 l 0,1.7942 2.68716,0.091 c 2.32385,0.078 2.77285,0.1435 3.32091,0.4825 0.83322,0.5155 1.71903,1.7195 1.92536,2.6171 0.10802,0.4699 0.16557,4.6343 0.16614,12.023 9.4e-4,12.9359 0.0425,12.477 -1.2542,13.8853 -0.48012,0.5214 -1.01631,0.9031 -1.45696,1.0372 -0.8644,0.2629 -7.55901,0.2514 -8.38763,-0.014 z m 9.51073,-18.0641 c 0.19751,-0.2386 0.28086,-7.9156 0.0924,-8.509 -0.0836,-0.2631 -0.69523,-0.2976 -5.27977,-0.2976 -4.58454,0 -5.19618,0.034 -5.27978,0.2976 -0.18848,0.5934 -0.10514,8.2704 0.0924,8.509 0.26748,0.3231 10.10732,0.3231 10.3748,0 z"
       style="fill:#000099;fill-opacity:1"
       inkscape:connector-curvature="0" />
    <path
       id="path9598-5"
       d="m -99.18831,1045.4869 c -0.32156,-0.1031 -0.92863,-0.5611 -1.34903,-1.0177 -1.30208,-1.4141 -1.25988,-0.9484 -1.25888,-13.8904 6.2e-4,-7.6634 0.0563,-11.5464 0.17286,-12.0567 0.25351,-1.1095 1.59456,-2.6745 2.43004,-2.8359 l 0.63947,-0.1235 0.053,-1.8411 c 0.0625,-2.1723 0.27601,-2.6324 1.22132,-2.6324 0.92229,0 1.09045,0.3828 1.09045,2.4824 l 0,1.7942 2.68716,0.091 c 2.32385,0.078 2.77285,0.1435 3.32091,0.4825 0.83322,0.5155 1.71903,1.7195 1.92536,2.6171 0.10802,0.4699 0.16557,4.6343 0.16614,12.023 9.4e-4,12.9359 0.0425,12.477 -1.2542,13.8853 -0.48012,0.5214 -1.01631,0.9031 -1.45696,1.0372 -0.8644,0.2629 -7.55901,0.2514 -8.38763,-0.014 z m 9.51073,-18.0641 c 0.19751,-0.2386 0.28086,-7.9156 0.0924,-8.509 -0.0836,-0.2631 -0.69523,-0.2976 -5.27977,-0.2976 -4.58454,0 -5.19618,0.034 -5.27978,0.2976 -0.18848,0.5934 -0.10514,8.2704 0.0924,8.509 0.26748,0.3231 10.10732,0.3231 10.3748,0 z"
       style="fill:#000099;fill-opacity:1"
       inkscape:connector-curvature="0" />
    <path
       style="fill:none;stroke:#000000;stroke-width:1;stroke-linecap:butt;stroke-linejoin:miter;stroke-opacity:1;stroke-miterlimit:4;stroke-dasharray:4,4;stroke-dashoffset:0;marker-start:url(#Arrow1Lstart);marker-end:url(#Arrow1Lend)"
       d="M 192.14286,439.50504 127.85714,476.6479"
       id="path3961"
       inkscape:connector-curvature="0"
       transform="translate(-528.37145,333.45726)" />
    <path
       style="fill:none;stroke:#000000;stroke-width:1;stroke-linecap:butt;stroke-linejoin:miter;stroke-opacity:1;stroke-miterlimit:4;stroke-dasharray:4, 4;stroke-dashoffset:0;marker-start:url(#Arrow1Lstart);marker-end:url(#Arrow1Lend)"
       d="m 223.57143,433.79075 29.28571,-20.71428"
       id="path5321"
       inkscape:connector-curvature="0"
       transform="translate(-528.37145,333.45726)" />
    <path
       style="fill:none;stroke:#000000;stroke-width:1;stroke-linecap:butt;stroke-linejoin:miter;stroke-opacity:1;stroke-miterlimit:4;stroke-dasharray:4, 4;stroke-dashoffset:0;marker-start:url(#Arrow1Lstart);marker-end:url(#Arrow1Lend)"
       d="M 217.14286,504.50504 240,541.6479"
       id="path5691"
       inkscape:connector-curvature="0"
       transform="translate(-528.37145,333.45726)" />
    <path
       style="fill:none;stroke:#c70000;stroke-width:1;stroke-linecap:butt;stroke-linejoin:miter;stroke-opacity:1;stroke-miterlimit:4;stroke-dasharray:4, 4;stroke-dashoffset:0;marker-start:url(#Arrow1Lstart);marker-end:url(#Arrow1Lend)"
       d="M 418.57143,384.50504 C 475,433.79075 475,433.79075 475,433.79075"
       id="path6245"
       inkscape:connector-curvature="0"
       transform="translate(-528.37145,333.45726)" />
    <path
       style="fill:none;stroke:#cf0000;stroke-width:1;stroke-linecap:butt;stroke-linejoin:miter;stroke-opacity:1;stroke-miterlimit:4;stroke-dasharray:4, 4;stroke-dashoffset:0;marker-start:url(#Arrow1Lstart);marker-end:url(#Arrow1Lend)"
       d="m 502.14286,445.93361 c 45,29.28571 45,29.28571 45,29.28571"
       id="path6615"
       inkscape:connector-curvature="0"
       transform="translate(-528.37145,333.45726)" />
    <path
       style="fill:none;stroke:#cd0000;stroke-width:1;stroke-linecap:butt;stroke-linejoin:miter;stroke-opacity:1;marker-start:url(#Arrow1Lstart);marker-end:url(#Arrow1Lend);stroke-miterlimit:4;stroke-dasharray:4,4;stroke-dashoffset:0"
       d="M 476.42857,458.07647 C 442.85714,511.6479 442.85714,511.6479 442.85714,511.6479"
       id="path6985"
       inkscape:connector-curvature="0"
       transform="translate(-528.37145,333.45726)" />
    <path
       style="fill:none;stroke:#009d00;stroke-width:1;stroke-linecap:butt;stroke-linejoin:miter;stroke-opacity:1;stroke-miterlimit:4;stroke-dasharray:4, 4;stroke-dashoffset:0;marker-start:url(#Arrow1Lstart);marker-end:url(#Arrow1Lend)"
       d="m 265.71429,685.21933 c 72.85714,-46.42858 72.85714,-46.42858 72.85714,-46.42858"
       id="path7355"
       inkscape:connector-curvature="0"
       transform="translate(-528.37145,333.45726)" />
    <path
       style="fill:none;stroke:#009600;stroke-width:1;stroke-linecap:butt;stroke-linejoin:miter;stroke-opacity:1;stroke-miterlimit:4;stroke-dasharray:4, 4;stroke-dashoffset:0;marker-start:url(#Arrow1Lstart);marker-end:url(#Arrow1Lend)"
       d="m 370.71429,640.93361 47.14285,37.14286"
       id="path7725"
       inkscape:connector-curvature="0"
       transform="translate(-528.37145,333.45726)" />
    <text
       xml:space="preserve"
       style="font-size:40px;font-style:normal;font-weight:normal;line-height:125%;letter-spacing:0px;word-spacing:0px;fill:#000000;fill-opacity:1;stroke:none;font-family:Sans"
       x="-304.65717"
       y="816.10516"
       id="text8095"
       sodipodi:linespacing="125%"><tspan
         sodipodi:role="line"
         id="tspan8097"
         x="-304.65717"
         y="816.10516"
         style="font-size:18px">BTS A</tspan></text>
    <text
       xml:space="preserve"
       style="font-size:40px;font-style:normal;font-weight:normal;line-height:125%;letter-spacing:0px;word-spacing:0px;fill:#000000;fill-opacity:1;stroke:none;font-family:Sans"
       x="-36.606483"
       y="858.05811"
       id="text8095-7"
       sodipodi:linespacing="125%"><tspan
         sodipodi:role="line"
         id="tspan8097-6"
         x="-36.606483"
         y="858.05811"
         style="font-size:18px">BTS B</tspan></text>
    <text
       xml:space="preserve"
       style="font-size:40px;font-style:normal;font-weight:normal;line-height:125%;letter-spacing:0px;word-spacing:0px;fill:#000000;fill-opacity:1;stroke:none;font-family:Sans"
       x="-197.60648"
       y="1058.9153"
       id="text8095-1"
       sodipodi:linespacing="125%"><tspan
         sodipodi:role="line"
         id="tspan8097-8"
         x="-197.60648"
         y="1058.9153"
         style="font-size:18px">BTS C</tspan></text>
    <text
       xml:space="preserve"
       style="font-size:40px;font-style:normal;font-weight:normal;line-height:125%;letter-spacing:0px;word-spacing:0px;fill:#000000;fill-opacity:1;stroke:none;font-family:Sans"
       x="-423.37146"
       y="832.24805"
       id="text9817"
       sodipodi:linespacing="125%"><tspan
         sodipodi:role="line"
         id="tspan9819"
         x="-423.37146"
         y="832.24805"
         style="font-size:16px;fill:#ffffff;fill-opacity:1">1</tspan></text>
    <text
       xml:space="preserve"
       style="font-size:40px;font-style:normal;font-weight:normal;line-height:125%;letter-spacing:0px;word-spacing:0px;fill:#000000;fill-opacity:1;stroke:none;font-family:Sans"
       x="-267.22302"
       y="751.85516"
       id="text9817-9"
       sodipodi:linespacing="125%"><tspan
         sodipodi:role="line"
         id="tspan9819-2"
         x="-267.22302"
         y="751.85516"
         style="font-size:16px;fill:#ffffff;fill-opacity:1">2</tspan></text>
    <text
       xml:space="preserve"
       style="font-size:40px;font-style:normal;font-weight:normal;line-height:125%;letter-spacing:0px;word-spacing:0px;fill:#000000;fill-opacity:1;stroke:none;font-family:Sans"
       x="-125.79443"
       y="730.99799"
       id="text9817-7"
       sodipodi:linespacing="125%"><tspan
         sodipodi:role="line"
         id="tspan9819-9"
         x="-125.79443"
         y="730.99799"
         style="font-size:16px;fill:#ffffff;fill-opacity:1">3</tspan></text>
    <text
       xml:space="preserve"
       style="font-size:40px;font-style:normal;font-weight:normal;line-height:125%;letter-spacing:0px;word-spacing:0px;fill:#000000;fill-opacity:1;stroke:none;font-family:Sans"
       x="28.776968"
       y="838.28375"
       id="text9817-5"
       sodipodi:linespacing="125%"><tspan
         sodipodi:role="line"
         id="tspan9819-4"
         x="28.776968"
         y="838.28375"
         style="font-size:16px;fill:#ffffff;fill-opacity:1">4</tspan></text>
    <text
       xml:space="preserve"
       style="font-size:40px;font-style:normal;font-weight:normal;line-height:125%;letter-spacing:0px;word-spacing:0px;fill:#000000;fill-opacity:1;stroke:none;font-family:Sans"
       x="-99.36586"
       y="1042.998"
       id="text9817-3"
       sodipodi:linespacing="125%"><tspan
         sodipodi:role="line"
         id="tspan9819-1"
         x="-99.36586"
         y="1042.998"
         style="font-size:16px;fill:#ffffff;fill-opacity:1">5</tspan></text>
    <text
       xml:space="preserve"
       style="font-size:40px;font-style:normal;font-weight:normal;line-height:125%;letter-spacing:0px;word-spacing:0px;fill:#000000;fill-opacity:1;stroke:none;font-family:Sans"
       x="-281.42569"
       y="1040.8514"
       id="text9817-2"
       sodipodi:linespacing="125%"><tspan
         sodipodi:role="line"
         id="tspan9819-3"
         x="-281.42569"
         y="1040.8514"
         style="font-size:16px;fill:#ffffff;fill-opacity:1">6</tspan></text>
    <text
       xml:space="preserve"
       style="font-size:40px;font-style:normal;font-weight:normal;line-height:125%;letter-spacing:0px;word-spacing:0px;fill:#000000;fill-opacity:1;stroke:none;font-family:Sans"
       x="-282.36584"
       y="907.14087"
       id="text9817-34"
       sodipodi:linespacing="125%"><tspan
         sodipodi:role="line"
         id="tspan9819-11"
         x="-282.36584"
         y="907.14087"
         style="font-size:16px;fill:#ffffff;fill-opacity:1">7</tspan></text>
    <text
       xml:space="preserve"
       style="font-size:40px;font-style:normal;font-weight:normal;line-height:125%;letter-spacing:0px;word-spacing:0px;fill:#000000;fill-opacity:1;stroke:none;font-family:Sans"
       x="-102.22301"
       y="873.71228"
       id="text9817-38"
       sodipodi:linespacing="125%"><tspan
         sodipodi:role="line"
         id="tspan9819-7"
         x="-102.22301"
         y="873.71228"
         style="font-size:16px;fill:#ffffff;fill-opacity:1">8</tspan></text>
  </g>
</svg>
