<?xml version="1.0" encoding="UTF-8" standalone="no"?>
<!-- Created with Inkscape (http://www.inkscape.org/) -->

<svg
   xmlns:dc="http://purl.org/dc/elements/1.1/"
   xmlns:cc="http://creativecommons.org/ns#"
   xmlns:rdf="http://www.w3.org/1999/02/22-rdf-syntax-ns#"
   xmlns:svg="http://www.w3.org/2000/svg"
   xmlns="http://www.w3.org/2000/svg"
   xmlns:sodipodi="http://sodipodi.sourceforge.net/DTD/sodipodi-0.dtd"
   xmlns:inkscape="http://www.inkscape.org/namespaces/inkscape"
   id="svg2985"
   version="1.1"
   inkscape:version="0.48.2 r9819"
   width="350.825"
   height="237.2625"
   xml:space="preserve"
   sodipodi:docname="powermodel.eps"><metadata
     id="metadata2991"><rdf:RDF><cc:Work
         rdf:about=""><dc:format>image/svg+xml</dc:format><dc:type
           rdf:resource="http://purl.org/dc/dcmitype/StillImage" /><dc:title></dc:title></cc:Work></rdf:RDF></metadata><defs
     id="defs2989"><clipPath
       clipPathUnits="userSpaceOnUse"
       id="clipPath3001"><path
         d="m 0,0 2806.59,0 0,1898 L 0,1898 0,0 z"
         id="path3003" /></clipPath></defs><sodipodi:namedview
     pagecolor="#ffffff"
     bordercolor="#666666"
     borderopacity="1"
     objecttolerance="10"
     gridtolerance="10"
     guidetolerance="10"
     inkscape:pageopacity="0"
     inkscape:pageshadow="2"
     inkscape:window-width="1280"
     inkscape:window-height="962"
     id="namedview2987"
     showgrid="false"
     inkscape:zoom="4"
     inkscape:cx="149.12927"
     inkscape:cy="425.68505"
     inkscape:window-x="-8"
     inkscape:window-y="-8"
     inkscape:window-maximized="1"
     inkscape:current-layer="g2999" /><g
     id="g2993"
     inkscape:groupmode="layer"
     inkscape:label="ink_ext_XXXXXX"
     transform="matrix(1.25,0,0,-1.25,0,237.2625)"><g
       id="g2995"
       transform="scale(0.1,0.1)"><g
         id="g2997"><g
           id="g2999"
           clip-path="url(#clipPath3001)"><path
             d="M 435.63701,649.82429 1169.914,904.60078"
             style="fill:none;stroke:#231f20;stroke-width:4.42021942;stroke-linecap:butt;stroke-linejoin:miter;stroke-miterlimit:4;stroke-opacity:1;stroke-dasharray:none"
             id="path3007"
             inkscape:connector-curvature="0" /><path
             d="m 1171.3485,1103.6883 0,-200.38662"
             style="fill:none;stroke:#231f20;stroke-width:5.56136179;stroke-linecap:butt;stroke-linejoin:miter;stroke-miterlimit:4;stroke-opacity:1;stroke-dasharray:none"
             id="path3009"
             inkscape:connector-curvature="0" /><path
             d="m 196.15612,659.98028 22.191,0 c 7.301,-0.039 12.539,1.32 15.66,4.098 3.09,2.691 4.61,6.601 4.653,11.57 -0.043,3.543 -0.934,6.59 -2.735,9.211 -1.836,2.5 -4.218,4.18 -7.187,5.039 -1.953,0.512 -5.512,0.781 -10.617,0.82 l -21.965,0 0,-30.738 z m -11.36,-45.082 0,85.902 32.379,0 c 5.703,0 10.082,-0.281 13.082,-0.82 4.219,-0.711 7.739,-2.07 10.59,-4.031 2.852,-1.981 5.16,-4.719 6.91,-8.27 1.719,-3.601 2.582,-7.5 2.621,-11.73 -0.039,-7.34 -2.343,-13.551 -6.992,-18.551 -4.687,-5.039 -13.09,-7.539 -25.199,-7.539 l -22.031,0 0,-34.961 -11.36,0"
             style="fill:#231f20;fill-opacity:1;fill-rule:nonzero;stroke:none"
             id="path3011"
             inkscape:connector-curvature="0" /><path
             d="m 264.32,585.801 -6.879,0 0,43.679 c -1.679,-1.609 -3.832,-3.16 -6.476,-4.73 -2.703,-1.602 -5.125,-2.77 -7.235,-3.52 l 0,6.602 c 3.829,1.797 7.188,4.027 10.079,6.566 2.851,2.543 4.882,5.043 6.093,7.461 l 4.418,0 0,-56.058"
             style="fill:#231f20;fill-opacity:1;fill-rule:nonzero;stroke:none"
             id="path3013"
             inkscape:connector-curvature="0" /><path
             d="m 282.52,651.602 32.3828,0 0,10.5898 -32.3828,0 0,-10.5898 z"
             style="fill:#231f20;fill-opacity:1;fill-rule:nonzero;stroke:none"
             id="path3015"
             inkscape:connector-curvature="0" /><path
             d="m 416.691,695.5 12.028,0 -23.465,-49.34 c 0.578,-5.262 0.855,-9.801 0.887,-13.828 -0.032,-10.934 -2.071,-16.434 -6.168,-16.434 -2.973,0 -4.453,2.293 -4.453,6.903 0,6.058 2.195,13.558 6.562,22.629 -0.863,5.621 -2.07,12.371 -3.633,20.3 -1.554,7.93 -3.156,13.641 -4.73,17.071 -1.637,3.488 -3.938,5.199 -6.949,5.199 -4.922,0 -7.54,-3.711 -7.891,-11.059 l -2.109,0 c 0,12.891 3.828,19.379 11.48,19.379 4.418,0 7.699,-2.66 9.848,-7.89 2.117,-5.239 4.293,-16.559 6.64,-33.989 l 11.953,41.059"
             style="fill:#231f20;fill-opacity:1;fill-rule:nonzero;stroke:none"
             id="path3017"
             inkscape:connector-curvature="0" /><path
             d="m 279.934,1775.74 22.175,0 c 7.309,-0.04 12.543,1.37 15.672,4.1 3.078,2.7 4.614,6.56 4.653,11.53 -0.039,3.63 -0.946,6.64 -2.743,9.21 -1.832,2.5 -4.222,4.22 -7.191,5.08 -1.949,0.51 -5.496,0.74 -10.621,0.78 l -21.945,0 0,-30.7 z m -11.375,-45.08 0,85.9 32.382,0 c 5.7,0 10.079,-0.27 13.09,-0.82 4.223,-0.7 7.731,-2.07 10.578,-4.02 2.852,-1.99 5.161,-4.73 6.922,-8.28 1.723,-3.6 2.578,-7.5 2.61,-11.72 -0.032,-7.35 -2.34,-13.56 -6.989,-18.56 -4.691,-5.08 -13.082,-7.58 -25.187,-7.58 l -22.031,0 0,-34.92 -11.375,0"
             style="fill:#231f20;fill-opacity:1;fill-rule:nonzero;stroke:none"
             id="path3019" /><path
             d="m 378.711,1713.32 0,-6.64 -36.91,0 c -0.039,1.68 0.242,3.2 0.82,4.76 0.938,2.46 2.418,4.96 4.488,7.43 2.071,2.42 5.082,5.23 8.989,8.43 6.054,5 10.152,8.95 12.304,11.88 2.11,2.89 3.168,5.58 3.207,8.2 -0.039,2.7 -1.019,5 -2.925,6.88 -1.965,1.87 -4.504,2.85 -7.586,2.85 -3.36,0 -5.977,-1.06 -7.93,-3.01 -1.984,-1.99 -3.008,-4.77 -3.008,-8.24 l -7.031,0.74 c 0.43,5.23 2.23,9.26 5.43,11.99 3.121,2.74 7.382,4.1 12.691,4.14 5.32,-0.04 9.543,-1.48 12.699,-4.41 3.094,-3.05 4.649,-6.72 4.696,-11.09 -0.047,-2.23 -0.516,-4.42 -1.375,-6.57 -0.938,-2.18 -2.461,-4.49 -4.571,-6.83 -2.148,-2.43 -5.656,-5.67 -10.547,-9.81 -4.14,-3.47 -6.761,-5.86 -7.929,-7.07 -1.172,-1.25 -2.153,-2.46 -2.891,-3.63 l 27.379,0"
             style="fill:#231f20;fill-opacity:1;fill-rule:nonzero;stroke:none"
             id="path3021" /><path
             d="m 1171.51,282.539 c -11.25,-1.891 -16.87,-9.539 -16.83,-23.098 -0.04,-7.031 1.36,-12.461 4.18,-16.32 2.81,-3.871 6.05,-5.789 9.8,-5.789 3.83,0 7.03,1.848 9.53,5.598 2.5,3.66 3.75,8.75 3.75,15.152 0,9.219 -3.47,17.348 -10.43,24.457 l 0,0 z m -2.58,2.691 c -1.95,2.141 -4.68,4.809 -8.16,7.809 -3.83,3.359 -6.41,6.012 -7.69,7.973 -1.37,1.918 -2.04,4.058 -2,6.32 -0.04,3.398 1.57,6.098 4.81,8.168 3.16,1.91 7.34,2.93 12.54,2.93 5.11,0 9.61,-0.86 13.47,-2.66 3.83,-1.758 5.78,-4.18 5.78,-7.258 0,-1.492 -0.46,-2.692 -1.4,-3.68 -0.94,-0.973 -2.03,-1.523 -3.28,-1.473 -1.8,-0.05 -3.91,1.321 -6.33,4.051 -2.5,2.738 -4.61,4.66 -6.25,5.738 -1.72,1.102 -3.67,1.653 -5.94,1.684 -2.89,-0.031 -5.27,-0.652 -7.11,-1.902 -1.87,-1.301 -2.81,-2.891 -2.77,-4.93 -0.04,-1.879 0.74,-3.629 2.26,-5.27 1.49,-1.648 5.39,-4.648 11.8,-8.941 6.72,-4.699 11.49,-8.289 14.3,-10.949 2.77,-2.61 5.08,-5.781 6.83,-9.531 1.72,-3.75 2.58,-7.727 2.62,-11.911 -0.04,-7.386 -2.62,-13.828 -7.77,-19.418 -5.16,-5.621 -11.21,-8.398 -18.09,-8.398 -6.33,0 -11.64,2.227 -15.97,6.719 -4.34,4.5 -6.49,10.508 -6.49,18.008 0,7.191 2.38,13.203 7.15,18.089 4.76,4.852 10.66,7.731 17.69,8.832 l 0,0"
             style="fill:#231f20;fill-opacity:1;fill-rule:nonzero;stroke:none"
             id="path3023"
             inkscape:connector-curvature="0" /><path
             d="m 1391.9956,1034.766 12.03,0 -23.48,-49.28999 c 0.59,-5.28 0.86,-9.85 0.9,-13.83 -0.04,-10.94 -2.07,-16.45 -6.17,-16.45 -2.97,0 -4.45,2.31 -4.45,6.92 0,6.01 2.18,13.55 6.56,22.61 -0.86,5.67 -2.07,12.39 -3.63,20.31999 -1.57,7.93 -3.17,13.67 -4.73,17.07 -1.64,3.43 -3.94,5.15 -6.95,5.15 -4.92,0 -7.54,-3.67 -7.89,-11.01 l -2.11,0 c 0,12.89 3.83,19.33 11.48,19.33 4.42,0 7.7,-2.61 9.85,-7.85 2.1,-5.23 4.29,-16.52 6.64,-33.97999 l 11.95,41.00999"
             style="fill:#231f20;fill-opacity:1;fill-rule:nonzero;stroke:none"
             id="path3025"
             inkscape:connector-curvature="0" /><path
             d="m 2558.6,248.332 1.52,-9.332 c -2.97,-0.629 -5.62,-0.93 -7.97,-0.93 -3.82,0 -6.79,0.578 -8.9,1.789 -2.11,1.25 -3.6,2.821 -4.46,4.801 -0.86,1.961 -1.29,6.102 -1.29,12.422 l 0,35.816 -7.73,0 0,8.211 7.73,0 0,15.43 10.47,6.332 0,-21.762 10.63,0 0,-8.211 -10.63,0 0,-36.359 c -0.04,-3 0.16,-4.957 0.55,-5.82 0.39,-0.86 0.98,-1.571 1.84,-2.071 0.82,-0.5 2.03,-0.75 3.63,-0.75 1.09,0 2.66,0.122 4.61,0.434 l 0,0"
             style="fill:#231f20;fill-opacity:1;fill-rule:nonzero;stroke:none"
             id="path3027"
             inkscape:connector-curvature="0" /><path
             d="m 2670,214.898 14.77,21.012 -13.67,19.422 8.55,0 6.21,-9.461 c 1.14,-1.832 2.07,-3.359 2.82,-4.531 1.09,1.64 2.11,3.129 3.08,4.461 l 6.84,9.531 8.16,0 -13.94,-19.031 15.04,-21.403 -8.44,0 -8.28,12.582 -2.23,3.391 -10.62,-15.973 -8.29,0 z m -13.04,20.352 c -2.54,-1.102 -6.29,-1.949 -11.21,-2.66 -2.85,-0.34 -4.85,-0.86 -5.98,-1.36 -1.21,-0.511 -2.11,-1.25 -2.73,-2.23 -0.67,-0.98 -0.98,-2.07 -0.94,-3.238 -0.04,-1.883 0.66,-3.403 2.07,-4.571 1.41,-1.25 3.44,-1.832 6.09,-1.832 2.62,0 4.96,0.539 7.03,1.75 2.04,1.141 3.52,2.692 4.54,4.723 0.7,1.527 1.09,3.789 1.13,6.848 l 0,2.57 z m 0.54,-15.352 c -2.53,-2.148 -5,-3.707 -7.34,-4.566 -2.38,-0.902 -4.88,-1.293 -7.54,-1.332 -4.45,0.039 -7.89,1.09 -10.27,3.289 -2.38,2.109 -3.56,4.871 -3.56,8.27 0,1.953 0.43,3.75 1.33,5.48 0.9,1.551 2.07,2.891 3.56,3.902 1.44,0.969 3.12,1.707 4.96,2.219 1.33,0.352 3.36,0.711 6.09,1.059 5.51,0.621 9.57,1.402 12.23,2.34 0,0.941 0,1.523 0.04,1.8 -0.04,2.77 -0.67,4.723 -1.96,5.903 -1.75,1.558 -4.37,2.308 -7.81,2.347 -3.24,-0.039 -5.62,-0.597 -7.15,-1.73 -1.56,-1.129 -2.69,-3.117 -3.4,-5.981 l -6.71,0.903 c 0.62,2.82 1.6,5.199 3,6.961 1.37,1.75 3.4,3.078 6.06,4.097 2.62,0.903 5.66,1.403 9.18,1.403 3.44,0 6.25,-0.43 8.44,-1.25 2.1,-0.821 3.71,-1.832 4.76,-3.043 0.98,-1.25 1.68,-2.821 2.11,-4.61 0.2,-1.25 0.31,-3.359 0.35,-6.32 l 0,-9.18 c -0.04,-6.418 0.12,-10.429 0.43,-12.07 0.31,-1.769 0.9,-3.359 1.76,-4.891 l -7.19,0 c -0.74,1.403 -1.17,3.043 -1.37,5 l 0,0 z m -91.4,-5 0,40.434 6.13,0 0,-5.672 c 1.21,1.961 2.89,3.559 5.04,4.77 2.07,1.218 4.49,1.832 7.23,1.832 2.97,0 5.39,-0.614 7.34,-1.864 1.88,-1.25 3.24,-3.019 4.06,-5.207 3.17,4.688 7.35,7.071 12.5,7.071 3.99,0 7.07,-1.133 9.26,-3.364 2.15,-2.218 3.2,-5.578 3.24,-10.218 l 0,-27.782 -6.83,0 0,25.473 c -0.04,2.738 -0.28,4.719 -0.67,5.93 -0.47,1.179 -1.25,2.109 -2.42,2.89 -1.17,0.707 -2.54,1.098 -4.1,1.141 -2.85,-0.043 -5.23,-0.973 -7.11,-2.852 -1.91,-1.91 -2.85,-4.968 -2.81,-9.07 l 0,-23.512 -6.84,0 0,26.293 c 0,3 -0.58,5.309 -1.68,6.829 -1.17,1.492 -2.97,2.269 -5.47,2.312 -1.95,-0.043 -3.75,-0.512 -5.39,-1.531 -1.64,-1.051 -2.85,-2.539 -3.55,-4.442 -0.78,-2 -1.13,-4.808 -1.1,-8.488 l 0,-20.973 -6.83,0"
             style="fill:#231f20;fill-opacity:1;fill-rule:nonzero;stroke:none"
             id="path3029"
             inkscape:connector-curvature="0" /><path
             d="M 438.91908,1042.3897 1960.3609,1560.6173"
             style="fill:none;stroke:#231f20;stroke-width:4.50400016;stroke-linecap:butt;stroke-linejoin:miter;stroke-miterlimit:4;stroke-opacity:1;stroke-dasharray:36.03200152,36.03200152;stroke-dashoffset:0"
             id="path3031"
             inkscape:connector-curvature="0" /><path
             d="m 287.5,1083.85 22.191,0 c 7.313,-0.04 12.539,1.33 15.668,4.1 3.082,2.7 4.602,6.56 4.641,11.53 -0.039,3.63 -0.93,6.64 -2.73,9.21 -1.84,2.5 -4.219,4.22 -7.188,5.08 -1.953,0.55 -5.512,0.74 -10.617,0.78 l -21.965,0 0,-30.7 z m -11.355,-45.08 0,85.9 32.375,0 c 5.699,0 10.078,-0.27 13.089,-0.82 4.211,-0.7 7.731,-2.03 10.582,-4.02 2.848,-2 5.157,-4.73 6.918,-8.28 1.711,-3.6 2.571,-7.5 2.61,-11.72 -0.039,-7.35 -2.34,-13.56 -6.989,-18.56 -4.691,-5.08 -13.089,-7.58 -25.191,-7.58 l -22.039,0 0,-34.92 -11.355,0"
             style="fill:#231f20;fill-opacity:1;fill-rule:nonzero;stroke:none"
             id="path3033"
             inkscape:connector-curvature="0" /><path
             d="m 376.098,1014.79 -6.875,0 0,43.71 c -1.684,-1.64 -3.832,-3.2 -6.485,-4.77 -2.699,-1.6 -5.117,-2.73 -7.226,-3.51 l 0,6.64 c 3.828,1.76 7.187,3.94 10.078,6.52 2.851,2.54 4.879,5.04 6.09,7.46 l 4.418,0 0,-56.05"
             style="fill:#231f20;fill-opacity:1;fill-rule:nonzero;stroke:none"
             id="path3035"
             inkscape:connector-curvature="0" /><path
             d="m 1323.4447,1085.6895 -0.5356,-170.51872"
             style="fill:none;stroke:#231f20;stroke-width:4.42623806;stroke-linecap:butt;stroke-linejoin:miter;stroke-miterlimit:4;stroke-opacity:1;stroke-dasharray:none"
             id="path3053"
             inkscape:connector-curvature="0" /><path
             d="m 1322.7646,898.81468 c -5.29,14.19 -14.31,31.79 -23.84,42.7 l 23.78,-8.57 23.77,8.64 c -9.5,-10.94 -18.47,-28.56 -23.71,-42.77"
             style="fill:#231f20;fill-opacity:1;fill-rule:nonzero;stroke:none"
             id="path3055"
             inkscape:connector-curvature="0" /><path
             d="m 1324.7992,1104.0928 c 5.3,-14.19 14.31,-31.8 23.84,-42.7 l -23.78,8.56 -23.77,-8.63 c 9.5,10.93 18.47,28.56 23.71,42.77"
             style="fill:#231f20;fill-opacity:1;fill-rule:nonzero;stroke:none"
             id="path3057"
             inkscape:connector-curvature="0" /><path
             d="m 1167.5192,904.14848 180,0"
             style="fill:none;stroke:#231f20;stroke-width:5;stroke-linecap:butt;stroke-linejoin:miter;stroke-miterlimit:4;stroke-opacity:1;stroke-dasharray:20, 20;stroke-dashoffset:0"
             id="path3059"
             inkscape:connector-curvature="0" /><path
             d="m 1164.9646,1100.1484 180,0"
             style="fill:none;stroke:#231f20;stroke-width:5;stroke-linecap:butt;stroke-linejoin:miter;stroke-miterlimit:4;stroke-opacity:1;stroke-dasharray:20, 20;stroke-dashoffset:0"
             id="path3061"
             inkscape:connector-curvature="0" /><path
             d="m 1646.1725,1677.4479 c 0,-132.66 -96.66,-81.03 -110,-240"
             style="fill:none;stroke:#231f20;stroke-width:5;stroke-linecap:butt;stroke-linejoin:miter;stroke-miterlimit:4;stroke-opacity:1;stroke-dasharray:none"
             id="path3063"
             inkscape:connector-curvature="0" /><path
             d="m 1535.3164,1414.3961 c -4.07,14.59 -11.55,32.89 -20.12,44.57 l 22.97,-10.56 24.41,6.58 c -10.39,-10.08 -20.83,-26.89 -27.26,-40.59"
             style="fill:#231f20;fill-opacity:1;fill-rule:nonzero;stroke:none"
             id="path3065"
             inkscape:connector-curvature="0" /><path
             d="m 1827.4532,1686.5407 c 0,-66.33 30,-73.04 110,-120"
             style="fill:none;stroke:#231f20;stroke-width:5;stroke-linecap:butt;stroke-linejoin:miter;stroke-miterlimit:4;stroke-opacity:1;stroke-dasharray:none"
             id="path3067"
             inkscape:connector-curvature="0" /><path
             d="m 1951.9722,1558.044 c -14.92,2.64 -34.66,3.81 -48.89,1.13 l 19.44,16.15 4.62,24.86 c 4.6,-13.74 15.25,-30.41 24.83,-42.14"
             style="fill:#231f20;fill-opacity:1;fill-rule:nonzero;stroke:none"
             id="path3069"
             inkscape:connector-curvature="0" /><g
             id="g3071"
             transform="scale(10,10)"><text
               transform="matrix(0,1,1,0,11.641,41.793)"
               id="text3073"><tspan
                 style="fill:#231f20;fill-opacity:1;fill-rule:nonzero;stroke:none;font-family:Times New Roman;font-variant:normal;font-weight:normal;font-size:14;writing-mode:lr;-inkscape-font-specification:TimesNewRomanPSMT"
                 x="0 7.78613013 14.78613013 24.8965288 31.11039868 35.77239868 39.27239868 48.61039868 55.61039868 62.61039868 68.05864477 75.05864477 85.94823999 92.94823999 96.83788402 100.72752806 107.72752806 114.72752806 118.22752806 122.88952806 136.10342845"
                 y="0"
                 sodipodi:role="line"
                 id="tspan3075">Power Consumption (W)</tspan></text>
</g><path
             d="m 436.41,1867.93 0,-1530 2340,0"
             style="fill:none;stroke:#231f20;stroke-opacity:1;stroke-width:5;stroke-linecap:butt;stroke-linejoin:miter;stroke-miterlimit:4;stroke-dasharray:none"
             id="path3077" /><path
             d="m 2806.59,337.93 c -14.2,-5.27 -31.82,-14.25 -42.74,-23.77 l 8.6,23.77 -8.6,23.769 c 10.92,-9.508 28.54,-18.5 42.74,-23.769"
             style="fill:#231f20;fill-opacity:1;fill-rule:nonzero;stroke:none"
             id="path3079" /><path
             d="m 436.41,1898.11 c 5.27,-14.2 14.258,-31.82 23.778,-42.73 l -23.778,8.59 -23.773,-8.59 c 9.515,10.91 18.511,28.53 23.773,42.73"
             style="fill:#231f20;fill-opacity:1;fill-rule:nonzero;stroke:none"
             id="path3081" /><g
             id="g3083"
             transform="scale(10,10)"><text
               transform="matrix(1,0,0,-1,112.141,4.29297)"
               id="text3085"><tspan
                 style="fill:#231f20;fill-opacity:1;fill-rule:nonzero;stroke:none;font-family:Times New Roman;font-variant:normal;font-weight:normal;font-size:14;writing-mode:lr;-inkscape-font-specification:TimesNewRomanPSMT"
                 x="0 8.0595662 12.7215662 18.93542997 23.34460957 28.00660957 31.89625361 38.11012958 41.35719998 49.66285398 56.66285398 60.55251023 67.55251023 78.44210545"
                 y="0"
                 sodipodi:role="line"
                 id="tspan3087">Traffic Volume</tspan></text>
</g><path
             d="m 446.41,1797.93 2185,0"
             style="fill:none;stroke:#231f20;stroke-opacity:1;stroke-width:5;stroke-linecap:butt;stroke-linejoin:miter;stroke-miterlimit:4;stroke-dasharray:30,30;stroke-dashoffset:0"
             id="path3089" /><path
             d="m 2633.91,342.93 0,1447.51"
             style="fill:none;stroke:#231f20;stroke-opacity:1;stroke-width:5;stroke-linecap:butt;stroke-linejoin:miter;stroke-miterlimit:4;stroke-dasharray:30,30;stroke-dashoffset:0"
             id="path3091" /><path
             d="m 1171.6658,342.93 0,548.75127"
             style="fill:none;stroke:#231f20;stroke-width:4.2555995;stroke-linecap:butt;stroke-linejoin:miter;stroke-miterlimit:4;stroke-opacity:1;stroke-dasharray:25.53359591, 25.53359591;stroke-dashoffset:0"
             id="path3093"
             inkscape:connector-curvature="0" /><path
             d="m 1168.1231,1099.5092 734.277,254.7765"
             style="fill:none;stroke:#231f20;stroke-width:4.42021942;stroke-linecap:butt;stroke-linejoin:miter;stroke-miterlimit:4;stroke-opacity:1;stroke-dasharray:none"
             id="path3007-4"
             inkscape:connector-curvature="0" /><path
             d="m 1898.5335,1541.7257 734.277,254.7765"
             style="fill:none;stroke:#231f20;stroke-width:4.42021942;stroke-linecap:butt;stroke-linejoin:miter;stroke-miterlimit:4;stroke-opacity:1;stroke-dasharray:none"
             id="path3007-0"
             inkscape:connector-curvature="0" /><path
             inkscape:connector-curvature="0"
             d="m 1903.8811,339.23281 0,999.34029"
             style="fill:none;stroke:#231f20;stroke-width:4.504;stroke-linecap:butt;stroke-linejoin:miter;stroke-miterlimit:4;stroke-opacity:1;stroke-dasharray:27.024,27.024;stroke-dashoffset:0"
             id="path3093-9" /><path
             inkscape:connector-curvature="0"
             d="m 1905.2017,1546.0844 0,-194.0446"
             style="fill:none;stroke:#231f20;stroke-width:4.56114912;stroke-linecap:butt;stroke-linejoin:miter;stroke-miterlimit:4;stroke-opacity:1;stroke-dasharray:none"
             id="path3009-4" /><path
             d="m 1908.5319,1354.3627 180,0"
             style="fill:none;stroke:#231f20;stroke-width:5;stroke-linecap:butt;stroke-linejoin:miter;stroke-miterlimit:4;stroke-opacity:1;stroke-dasharray:20, 20;stroke-dashoffset:0"
             id="path3061-8"
             inkscape:connector-curvature="0" /><path
             d="m 1902.6241,1543.4062 180,0"
             style="fill:none;stroke:#231f20;stroke-width:5;stroke-linecap:butt;stroke-linejoin:miter;stroke-miterlimit:4;stroke-opacity:1;stroke-dasharray:20, 20;stroke-dashoffset:0"
             id="path3061-8-8"
             inkscape:connector-curvature="0" /><path
             d="m 2042.9007,1534.9498 -0.5356,-170.5188"
             style="fill:none;stroke:#231f20;stroke-width:4.42623806;stroke-linecap:butt;stroke-linejoin:miter;stroke-miterlimit:4;stroke-opacity:1;stroke-dasharray:none"
             id="path3053-2"
             inkscape:connector-curvature="0" /><path
             d="m 2041.7579,1348.4393 c -5.29,14.19 -14.31,31.79 -23.84,42.7 l 23.78,-8.57 23.77,8.64 c -9.5,-10.94 -18.47,-28.56 -23.71,-42.77"
             style="fill:#231f20;fill-opacity:1;fill-rule:nonzero;stroke:none"
             id="path3055-4"
             inkscape:connector-curvature="0" /><path
             d="m 2041.0922,1549.0592 c 5.3,-14.19 14.31,-31.8 23.84,-42.7 l -23.78,8.56 -23.77,-8.63 c 9.5,10.93 18.47,28.56 23.71,42.77"
             style="fill:#231f20;fill-opacity:1;fill-rule:nonzero;stroke:none"
             id="path3057-5"
             inkscape:connector-curvature="0" /><path
             d="m 2119.777,1482.4806 12.03,0 -23.48,-49.29 c 0.59,-5.28 0.86,-9.85 0.9,-13.83 -0.04,-10.94 -2.07,-16.45 -6.17,-16.45 -2.97,0 -4.45,2.31 -4.45,6.92 0,6.01 2.18,13.55 6.56,22.61 -0.86,5.67 -2.07,12.39 -3.63,20.32 -1.57,7.93 -3.17,13.67 -4.73,17.07 -1.64,3.43 -3.94,5.15 -6.95,5.15 -4.92,0 -7.54,-3.67 -7.89,-11.01 l -2.11,0 c 0,12.89 3.83,19.33 11.48,19.33 4.42,0 7.7,-2.61 9.85,-7.85 2.1,-5.23 4.29,-16.52 6.64,-33.98 l 11.95,41.01"
             style="fill:#231f20;fill-opacity:1;fill-rule:nonzero;stroke:none"
             id="path3025-5"
             inkscape:connector-curvature="0" /><path
             d="M 435.79712,842.00736 1182.6465,1101.6798"
             style="fill:none;stroke:#231f20;stroke-width:4.50039384;stroke-linecap:butt;stroke-linejoin:miter;stroke-miterlimit:4;stroke-opacity:1;stroke-dasharray:36.00315096,36.00315096;stroke-dashoffset:0"
             id="path3031-1"
             inkscape:connector-curvature="0" /><text
             xml:space="preserve"
             style="font-size:320px;font-style:normal;font-weight:normal;line-height:125%;letter-spacing:0px;word-spacing:0px;fill:#000000;fill-opacity:1;stroke:none;font-family:Sans"
             x="310.47253"
             y="-611.63367"
             id="text4068"
             sodipodi:linespacing="125%"
             transform="scale(1,-1)"><tspan
               sodipodi:role="line"
               id="tspan4070"
               x="310.47253"
               y="-611.63367"
               style="font-size:128px;font-family:Times New Roman;-inkscape-font-specification:Times New Roman">2</tspan></text>
<path
             d="m 253.39856,836.67968 22.191,0 c 7.301,-0.039 12.539,1.32 15.66,4.098 3.09,2.691 4.61,6.601 4.653,11.57 -0.043,3.543 -0.934,6.59 -2.735,9.211 -1.836,2.5 -4.218,4.18 -7.187,5.039 -1.953,0.512 -5.512,0.781 -10.617,0.82 l -21.965,0 0,-30.738 z m -11.36,-45.082 0,85.902 32.379,0 c 5.703,0 10.082,-0.281 13.082,-0.82 4.219,-0.711 7.739,-2.07 10.59,-4.031 2.852,-1.981 5.16,-4.719 6.91,-8.27 1.719,-3.601 2.582,-7.5 2.621,-11.73 -0.039,-7.34 -2.343,-13.551 -6.992,-18.551 -4.687,-5.039 -13.09,-7.539 -25.199,-7.539 l -22.031,0 0,-34.961 -11.36,0"
             style="fill:#231f20;fill-opacity:1;fill-rule:nonzero;stroke:none"
             id="path3011-1"
             inkscape:connector-curvature="0" /><path
             d="m 321.56244,762.50038 -6.879,0 0,43.679 c -1.679,-1.609 -3.832,-3.16 -6.476,-4.73 -2.703,-1.602 -5.125,-2.77 -7.235,-3.52 l 0,6.602 c 3.829,1.797 7.188,4.027 10.079,6.566 2.851,2.543 4.882,5.043 6.093,7.461 l 4.418,0 0,-56.058"
             style="fill:#231f20;fill-opacity:1;fill-rule:nonzero;stroke:none"
             id="path3013-1"
             inkscape:connector-curvature="0" /><path
             d="m 339.76244,828.30138 32.3828,0 0,10.5898 -32.3828,0 0,-10.5898 z"
             style="fill:#231f20;fill-opacity:1;fill-rule:nonzero;stroke:none"
             id="path3015-5"
             inkscape:connector-curvature="0" /><path
             d="m 409.93344,872.19938 12.028,0 -23.465,-49.34 c 0.578,-5.262 0.855,-9.801 0.887,-13.828 -0.032,-10.934 -2.071,-16.434 -6.168,-16.434 -2.973,0 -4.453,2.293 -4.453,6.903 0,6.058 2.195,13.558 6.562,22.629 -0.863,5.621 -2.07,12.371 -3.633,20.3 -1.554,7.93 -3.156,13.641 -4.73,17.071 -1.637,3.488 -3.938,5.199 -6.949,5.199 -4.922,0 -7.54,-3.711 -7.891,-11.059 l -2.109,0 c 0,12.891 3.828,19.379 11.48,19.379 4.418,0 7.699,-2.66 9.848,-7.89 2.117,-5.239 4.293,-16.559 6.64,-33.989 l 11.953,41.059"
             style="fill:#231f20;fill-opacity:1;fill-rule:nonzero;stroke:none"
             id="path3017-2"
             inkscape:connector-curvature="0" /><text
             xml:space="preserve"
             style="font-size:320px;font-style:normal;font-weight:normal;line-height:125%;letter-spacing:0px;word-spacing:0px;fill:#000000;fill-opacity:1;stroke:none;font-family:Times New Roman;-inkscape-font-specification:Times New Roman"
             x="1318"
             y="-1688"
             id="text4109"
             sodipodi:linespacing="125%"
             transform="scale(1,-1)"><tspan
               sodipodi:role="line"
               id="tspan4111"
               x="1318"
               y="-1688"
               style="font-size:128px">High power mode</tspan></text>
<path
             d="m 1104.735,1311.8124 c 0,-132.66 -96.66,-81.03 -110,-240"
             style="fill:none;stroke:#231f20;stroke-width:5;stroke-linecap:butt;stroke-linejoin:miter;stroke-miterlimit:4;stroke-opacity:1;stroke-dasharray:none"
             id="path3063-1"
             inkscape:connector-curvature="0" /><path
             d="m 993.8789,1048.7606 c -4.07,14.59 -11.55,32.89 -20.12,44.57 l 22.97,-10.56 24.41,6.58 c -10.39,-10.08 -20.83,-26.89 -27.26,-40.59"
             style="fill:#231f20;fill-opacity:1;fill-rule:nonzero;stroke:none"
             id="path3065-4"
             inkscape:connector-curvature="0" /><path
             d="m 1286.0157,1320.9052 c 0,-66.33 30,-73.04 110,-120"
             style="fill:none;stroke:#231f20;stroke-width:5;stroke-linecap:butt;stroke-linejoin:miter;stroke-miterlimit:4;stroke-opacity:1;stroke-dasharray:none"
             id="path3067-2"
             inkscape:connector-curvature="0" /><path
             d="m 1410.5347,1192.4085 c -14.92,2.64 -34.66,3.81 -48.89,1.13 l 19.44,16.15 4.62,24.86 c 4.6,-13.74 15.25,-30.41 24.83,-42.14"
             style="fill:#231f20;fill-opacity:1;fill-rule:nonzero;stroke:none"
             id="path3069-3"
             inkscape:connector-curvature="0" /><text
             xml:space="preserve"
             style="font-size:320px;font-style:normal;font-weight:normal;line-height:125%;letter-spacing:0px;word-spacing:0px;fill:#000000;fill-opacity:1;stroke:none;font-family:Times New Roman;-inkscape-font-specification:Times New Roman"
             x="664.5625"
             y="-1322.3645"
             id="text4109-2"
             sodipodi:linespacing="125%"
             transform="scale(1,-1)"><tspan
               sodipodi:role="line"
               id="tspan4111-2"
               x="664.5625"
               y="-1322.3645"
               style="font-size:128px">Medium power mode</tspan></text>
<path
             d="m 1013.1229,617.42454 c 0,105.45127 -86.79695,64.41065 -98.77575,190.77571"
             style="fill:none;stroke:#231f20;stroke-width:4.22429895;stroke-linecap:butt;stroke-linejoin:miter;stroke-miterlimit:4;stroke-opacity:1;stroke-dasharray:none"
             id="path3063-16"
             inkscape:connector-curvature="0" /><path
             d="m 913.8789,817.33059 c -4.07,-14.59 -11.55,-32.89 -20.12,-44.57 l 22.97,10.56 24.41,-6.58 c -10.39,10.08 -20.83,26.89 -27.26,40.59"
             style="fill:#231f20;fill-opacity:1;fill-rule:nonzero;stroke:none"
             id="path3065-8"
             inkscape:connector-curvature="0" /><text
             xml:space="preserve"
             style="font-size:320px;font-style:normal;font-weight:normal;line-height:125%;letter-spacing:0px;word-spacing:0px;fill:#000000;fill-opacity:1;stroke:none;font-family:Times New Roman;-inkscape-font-specification:Times New Roman"
             x="548.5625"
             y="-554.36444"
             id="text4109-6"
             sodipodi:linespacing="125%"
             transform="scale(1,-1)"><tspan
               sodipodi:role="line"
               id="tspan4111-1"
               x="548.5625"
               y="-554.36444"
               style="font-size:128px">Low power mode</tspan></text>
<path
             d="m 1216.295,203.97103 -6.879,0 0,43.679 c -1.679,-1.609 -3.832,-3.16 -6.476,-4.73 -2.703,-1.602 -5.125,-2.77 -7.235,-3.52 l 0,6.602 c 3.829,1.797 7.188,4.027 10.079,6.566 2.851,2.543 4.882,5.043 6.093,7.461 l 4.418,0 0,-56.058"
             style="fill:#231f20;fill-opacity:1;fill-rule:nonzero;stroke:none"
             id="path3013-8"
             inkscape:connector-curvature="0" /><path
             d="m 1903.3175,281.33852 c -11.25,-1.891 -16.87,-9.539 -16.83,-23.098 -0.04,-7.031 1.36,-12.461 4.18,-16.32 2.81,-3.871 6.05,-5.789 9.8,-5.789 3.83,0 7.03,1.848 9.53,5.598 2.5,3.66 3.75,8.75 3.75,15.152 0,9.219 -3.47,17.348 -10.43,24.457 l 0,0 z m -2.58,2.691 c -1.95,2.141 -4.68,4.809 -8.16,7.809 -3.83,3.359 -6.41,6.012 -7.69,7.973 -1.37,1.918 -2.04,4.058 -2,6.32 -0.04,3.398 1.57,6.098 4.81,8.168 3.16,1.91 7.34,2.93 12.54,2.93 5.11,0 9.61,-0.86 13.47,-2.66 3.83,-1.758 5.78,-4.18 5.78,-7.258 0,-1.492 -0.46,-2.692 -1.4,-3.68 -0.94,-0.973 -2.03,-1.523 -3.28,-1.473 -1.8,-0.05 -3.91,1.321 -6.33,4.051 -2.5,2.738 -4.61,4.66 -6.25,5.738 -1.72,1.102 -3.67,1.653 -5.94,1.684 -2.89,-0.031 -5.27,-0.652 -7.11,-1.902 -1.87,-1.301 -2.81,-2.891 -2.77,-4.93 -0.04,-1.879 0.74,-3.629 2.26,-5.27 1.49,-1.648 5.39,-4.648 11.8,-8.941 6.72,-4.699 11.49,-8.289 14.3,-10.949 2.77,-2.61 5.08,-5.781 6.83,-9.531 1.72,-3.75 2.58,-7.727 2.62,-11.911 -0.04,-7.386 -2.62,-13.828 -7.77,-19.418 -5.16,-5.621 -11.21,-8.398 -18.09,-8.398 -6.33,0 -11.64,2.227 -15.97,6.719 -4.34,4.5 -6.49,10.508 -6.49,18.008 0,7.191 2.38,13.203 7.15,18.089 4.76,4.852 10.66,7.731 17.69,8.832 l 0,0"
             style="fill:#231f20;fill-opacity:1;fill-rule:nonzero;stroke:none"
             id="path3023-9"
             inkscape:connector-curvature="0" /><text
             xml:space="preserve"
             style="font-size:320px;font-style:normal;font-weight:normal;line-height:125%;letter-spacing:0px;word-spacing:0px;fill:#000000;fill-opacity:1;stroke:none;font-family:Times New Roman;-inkscape-font-specification:Times New Roman"
             x="1926"
             y="-194.00003"
             id="text4220"
             sodipodi:linespacing="125%"
             transform="scale(1,-1)"><tspan
               sodipodi:role="line"
               id="tspan4222"
               x="1926"
               y="-194.00003"
               style="font-size:96px">2</tspan></text>
</g></g></g></g></svg>